<svg width="20" height="23" viewBox="0 0 14 17" fill="none" xmlns="http://www.w3.org/2000/svg">
<path d="M12.8709 4.16746C13.1859 3.85246 13.3592 3.43413 13.3592 2.98913C13.3592 2.54413 13.1859 2.12579 12.8709 1.81079L11.5492 0.489127C11.2342 0.174127 10.8159 0.000793457 10.3709 0.000793457C9.9259 0.000793457 9.50757 0.174127 9.1934 0.488293L0.333405 9.32079V13H4.0109L12.8709 4.16746ZM10.3709 1.66746L11.6934 2.98829L10.3684 4.30829L9.04674 2.98746L10.3709 1.66746ZM2.00007 11.3333V10.0125L7.86674 4.16413L9.1884 5.48579L3.32257 11.3333H2.00007ZM0.333405 14.6666H13.6667V16.3333H0.333405V14.6666Z" fill="#CBC4F5"/>
</svg>
