<svg width="18" height="17" viewBox="0 0 18 17" fill="none" xmlns="http://www.w3.org/2000/svg">
<path d="M16.5 0.5H10.6667C10.0242 0.5 9.44335 0.750833 9.00002 1.15C8.55669 0.750833 7.97585 0.5 7.33335 0.5H1.50002C1.03919 0.5 0.666687 0.873333 0.666687 1.33333V13.8333C0.666687 14.2942 1.03919 14.6667 1.50002 14.6667H6.29835C6.73669 14.6667 7.16669 14.845 7.47669 15.155L8.41085 16.0892C8.41835 16.0967 8.42835 16.0992 8.43585 16.1067C8.50752 16.1725 8.58752 16.2308 8.68085 16.27C8.68169 16.27 8.68169 16.27 8.68252 16.27C8.78335 16.3117 8.89085 16.3333 9.00002 16.3333C9.10919 16.3333 9.21669 16.3117 9.31752 16.27C9.31835 16.27 9.31835 16.27 9.31919 16.27C9.41252 16.2308 9.49252 16.1725 9.56419 16.1067C9.57169 16.0992 9.58169 16.0967 9.58919 16.0892L10.5234 15.155C10.8334 14.845 11.2634 14.6667 11.7017 14.6667H16.5C16.9609 14.6667 17.3334 14.2942 17.3334 13.8333V1.33333C17.3334 0.873333 16.9609 0.5 16.5 0.5ZM6.29835 13H2.33335V2.16667H7.33335C7.79335 2.16667 8.16669 2.54083 8.16669 3V13.5742C7.61835 13.205 6.96419 13 6.29835 13ZM15.6667 13H11.7017C11.0359 13 10.3817 13.205 9.83335 13.5742V3C9.83335 2.54083 10.2067 2.16667 10.6667 2.16667H15.6667V13Z" />
</svg>
