<svg width="18" height="26" viewBox="0 0 18 26" fill="none" xmlns="http://www.w3.org/2000/svg">
  <path
    d="M6.51681 9.02178C6.51681 7.64107 7.6361 6.52178 9.01681 6.52178C10.3975 6.52178 11.5168 7.64107 11.5168 9.02178C11.5168 10.4025 10.3975 11.5218 9.01681 11.5218C7.6361 11.5218 6.51681 10.4025 6.51681 9.02178ZM9.01681 8.02178C8.46453 8.02178 8.01681 8.46949 8.01681 9.02178C8.01681 9.57406 8.46453 10.0218 9.01681 10.0218C9.5691 10.0218 10.0168 9.57406 10.0168 9.02178C10.0168 8.46949 9.5691 8.02178 9.01681 8.02178ZM10.2947 0.847618C9.49318 0.42616 8.53551 0.426352 7.73412 0.848131L7.12069 1.17099C4.90296 2.3382 3.51446 4.63805 3.51446 7.14419L3.51446 8.55258C1.81854 8.79378 0.514487 10.2518 0.514487 12.0143V13.7715C0.514487 14.1857 0.850274 14.5215 1.26449 14.5215H3.51446V14.7758C3.51446 15.7423 4.29797 16.5258 5.26446 16.5258H5.96499L5.54101 18.0754C5.47929 18.301 5.52633 18.5425 5.6682 18.7284C5.81008 18.9143 6.03056 19.0234 6.26442 19.0234L11.7644 19.0234C11.9981 19.0234 12.2185 18.9144 12.3604 18.7288C12.5023 18.5431 12.5495 18.3018 12.4881 18.0764L12.066 16.5258H12.7691C13.7356 16.5258 14.5191 15.7423 14.5191 14.7758L14.5191 14.5258H16.7671C17.1813 14.5258 17.5171 14.19 17.5171 13.7758L17.5171 12.0186C17.5171 10.2567 16.2141 8.79917 14.5191 8.55713L14.5191 7.14583C14.5191 4.63872 13.1295 2.33815 10.9105 1.17137L10.2947 0.847618ZM8.43274 2.17551C8.797 1.98379 9.23231 1.98371 9.59665 2.17528L10.2124 2.49903C11.9383 3.40652 13.0191 5.19585 13.0191 7.14583V14.7758C13.0191 14.9139 12.9072 15.0258 12.7691 15.0258L5.26446 15.0258C5.12639 15.0258 5.01446 14.9139 5.01446 14.7758L5.01446 7.14419C5.01446 5.19497 6.0944 3.4062 7.81931 2.49836L8.43274 2.17551ZM14.5191 10.0846C15.3805 10.3061 16.0171 11.088 16.0171 12.0186L16.0171 13.0258H14.5191V10.0846ZM2.01449 12.0143C2.01449 11.083 2.65203 10.3007 3.51446 10.0798V13.0215L2.01449 13.0215V12.0143ZM10.5114 16.5258L10.783 17.5234L7.24718 17.5234L7.52012 16.5258H10.5114ZM9.76676 21.2765C9.76676 20.8622 9.43097 20.5265 9.01676 20.5265C8.60255 20.5265 8.26676 20.8622 8.26676 21.2765L8.26676 24.7765C8.26676 25.1907 8.60255 25.5265 9.01676 25.5265C9.43098 25.5265 9.76676 25.1907 9.76676 24.7765L9.76676 21.2765ZM6.26674 20.5265C6.68095 20.5265 7.01674 20.8623 7.01674 21.2765L7.01674 22.7765C7.01674 23.1907 6.68095 23.5265 6.26674 23.5265C5.85252 23.5265 5.51674 23.1907 5.51674 22.7765L5.51674 21.2765C5.51674 20.8623 5.85252 20.5265 6.26674 20.5265ZM12.5168 21.2794C12.5168 20.8652 12.181 20.5294 11.7668 20.5294C11.3526 20.5294 11.0168 20.8651 11.0168 21.2794L11.0168 22.7764C11.0168 23.1906 11.3526 23.5264 11.7668 23.5264C12.181 23.5264 12.5168 23.1907 12.5168 22.7764L12.5168 21.2794Z" />
</svg>