<svg width="32" height="32" viewBox="0 0 32 32" fill="none" xmlns="http://www.w3.org/2000/svg">
    <path
        d="M2.66667 26.6667H5.33333M5.33333 26.6667H18.6667M5.33333 26.6667V8.26693C5.33333 6.77345 5.33333 6.02616 5.62398 5.45573C5.87964 4.95396 6.2873 4.54631 6.78906 4.29065C7.35949 4 8.10679 4 9.60026 4H14.4003C15.8937 4 16.6394 4 17.2099 4.29065C17.7116 4.54631 18.1206 4.95396 18.3763 5.45573C18.6667 6.0256 18.6667 6.77199 18.6667 8.26255V16M18.6667 26.6667H26.6667M18.6667 26.6667V16M26.6667 26.6667H29.3333M26.6667 26.6667V16C26.6667 14.7575 26.6665 14.1365 26.4635 13.6465C26.1929 12.9931 25.6742 12.4736 25.0208 12.203C24.5308 12 23.9088 12 22.6663 12C21.4238 12 20.8026 12 20.3125 12.203C19.6591 12.4736 19.1403 12.9931 18.8697 13.6465C18.6667 14.1365 18.6667 14.7575 18.6667 16M9.33333 13.3333H14.6667M9.33333 9.33333H14.6667"
        stroke="currentColor" fill="white" stroke-linecap="round" stroke-linejoin="round" />
</svg>