<svg width="18" height="18" viewBox="0 0 18 18" fill="none" xmlns="http://www.w3.org/2000/svg">
    <path
        d="M1.15503 17.3838H10.0096C10.3069 17.3838 10.5478 17.1428 10.5478 16.8455V15.8038C10.5478 15.1579 10.1414 14.6055 9.57128 14.388V13.7875C9.57128 12.9869 8.91997 12.3357 8.11938 12.3357H3.04521C2.24461 12.3357 1.59331 12.9869 1.59331 13.7875V14.388C1.02319 14.6055 0.616748 15.1579 0.616748 15.8038V16.8455C0.616748 17.1428 0.857715 17.3838 1.15503 17.3838ZM3.04521 13.4123H8.11938C8.32626 13.4123 8.49472 13.5807 8.49472 13.7875V14.289H2.67V13.7875C2.67 13.5807 2.83834 13.4123 3.04521 13.4123ZM1.69331 15.8038C1.69331 15.5621 1.89 15.3656 2.13159 15.3656H9.03287C9.27459 15.3656 9.47128 15.5622 9.47128 15.8038V16.3072H1.69331V15.8038Z"
        stroke-width="0.1" />
    <path
        d="M4.84853 6.4803L4.84852 6.48031C4.65493 6.62607 4.61623 6.90054 4.76188 7.09414L4.84853 6.4803ZM4.84853 6.4803C5.04154 6.33488 5.31624 6.3729 5.46222 6.56682L5.50217 6.53675L5.46222 6.56682L7.80176 9.67426V9.67439L7.81182 9.68774C7.95708 9.8807 7.91827 10.1561 7.72529 10.3015C7.5322 10.4467 7.25686 10.4079 7.11148 10.2149C7.11147 10.2149 7.11147 10.2149 7.11147 10.2149L4.76189 7.09415L4.84853 6.4803ZM16.7802 15.8338L16.7802 15.8338C17.4475 15.3313 17.5817 14.3798 17.0793 13.7124L12.5307 7.67069C12.7715 7.36101 12.9827 7.02487 13.1593 6.66558C13.636 6.84827 14.1867 6.7844 14.6144 6.46238C15.2818 5.95991 15.416 5.00833 14.9135 4.34095L12.5639 1.22015C12.0615 0.55277 11.1099 0.418653 10.4425 0.921126C10.0101 1.24664 9.80214 1.76044 9.8453 2.26322C8.02461 2.58837 6.4724 3.75683 5.65624 5.41647C5.18057 5.23406 4.63206 5.29568 4.20092 5.62018L4.20091 5.62019C3.53201 6.1238 3.39814 7.07271 3.90176 7.74162L6.25135 10.8624C6.75223 11.5277 7.70341 11.6655 8.37279 11.1616C8.80519 10.8361 9.01316 10.3221 8.97 9.81935C9.36422 9.74899 9.74586 9.63892 10.1101 9.49298L14.6588 15.5346C15.1598 16.2003 16.1111 16.3375 16.7802 15.8338ZM11.0901 1.78126L11.0901 1.78124C11.2837 1.63543 11.559 1.67533 11.7039 1.86776C11.704 1.86776 11.704 1.86777 11.704 1.86777L14.0534 4.98856L14.0534 4.98857C14.1988 5.18153 14.16 5.45699 13.9669 5.60225L13.9669 5.60227C13.7734 5.74802 13.499 5.70935 13.3532 5.51574L11.0036 2.39495C10.8582 2.20185 10.897 1.92651 11.0901 1.78126ZM11.0813 8.99315C11.3278 8.8353 11.5618 8.65899 11.7817 8.46582L12.3711 9.24866L11.6707 9.77585L11.0813 8.99315ZM16.1326 14.9737C15.9395 15.1191 15.6642 15.0802 15.5188 14.8872L12.3182 10.636L13.0186 10.1088L16.2191 14.3599C16.3645 14.5529 16.3256 14.8283 16.1326 14.9737ZM6.50166 6.15732C7.16347 4.57524 8.61934 3.47927 10.3228 3.28054L12.3138 5.92512C11.6527 7.50533 10.1945 8.60352 8.49263 8.80203L6.50166 6.15732Z"
        stroke-width="0.1" />
</svg>