<svg width="32" height="32" viewBox="0 0 32 32" fill="none" xmlns="http://www.w3.org/2000/svg">
    <rect x="8.49998" y="12.0737" width="15" height="15" stroke="currentColor" fill="white"
        stroke-linejoin="bevel" />
    <path
        d="M10.5 9C10.5 5.96243 12.9624 3.5 16 3.5C19.0376 3.5 21.5 5.96243 21.5 9H20.5C20.5 6.51472 18.4853 4.5 16 4.5C13.5147 4.5 11.5 6.51472 11.5 9H10.5ZM21 10H11H21ZM10.5 10V9C10.5 5.96243 12.9624 3.5 16 3.5V4.5C13.5147 4.5 11.5 6.51472 11.5 9V10H10.5ZM16 3.5C19.0376 3.5 21.5 5.96243 21.5 9V10H20.5V9C20.5 6.51472 18.4853 4.5 16 4.5V3.5Z"
        fill="currentColor" />
    <rect x="13.5" y="16.0737" width="5" height="3" rx="1.5" stroke="currentColor" fill="white" />
    <mask id="path-4-inside-1_1098_1702" fill="white">
        <path
            d="M14.5 19H17.5V21.6547C17.5 22.3977 16.8977 23 16.1547 23H15.8453C15.1023 23 14.5 22.3977 14.5 21.6547V19Z" />
    </mask>
    <path
        d="M14.5 19H17.5H14.5ZM18.5 21.6547C18.5 22.95 17.45 24 16.1547 24H15.8453C14.55 24 13.5 22.95 13.5 21.6547H15.5C15.5 21.8454 15.6546 22 15.8453 22H16.1547C16.3454 22 16.5 21.8454 16.5 21.6547H18.5ZM15.8453 24C14.55 24 13.5 22.95 13.5 21.6547V19H15.5V21.6547C15.5 21.8454 15.6546 22 15.8453 22L15.8453 24ZM18.5 19V21.6547C18.5 22.95 17.45 24 16.1547 24L16.1547 22C16.3454 22 16.5 21.8454 16.5 21.6547V19H18.5Z"
        fill="currentColor" mask="url(#path-4-inside-1_1098_1702)" />
</svg>