<svg width="18" height="18" viewBox="0 0 18 18" fill="none" xmlns="http://www.w3.org/2000/svg">
<path d="M16.8451 3.25335H14.7466V2.74996C14.7466 2.45268 14.5056 2.21168 14.2084 2.21168H12.125C11.8277 2.21168 11.5867 2.45268 11.5867 2.74996V3.25335H7.80611L6.36813 0.876293C6.27063 0.715096 6.09597 0.616626 5.90757 0.616626H3.33596C3.03868 0.616626 2.79768 0.857632 2.79768 1.15491V3.25335H1.15497C0.857693 3.25335 0.616687 3.49435 0.616687 3.79163V5.87496C0.616687 6.17224 0.857693 6.41324 1.15497 6.41324H3.77424V14.1908H3.53127C3.30591 14.1908 3.10438 14.3313 3.02632 14.5427L2.24508 16.6586C2.11545 17.0096 2.37548 17.3833 2.75002 17.3833H9.00002C9.37429 17.3833 9.6347 17.0099 9.50497 16.6586L8.72372 14.5427C8.64566 14.3313 8.44413 14.1908 8.21877 14.1908H7.9758V6.41324H11.5867V6.94918C11.5867 7.24645 11.8277 7.48746 12.125 7.48746H12.6284V8.60243L11.0635 10.838H10.5625C10.2652 10.838 10.0242 11.079 10.0242 11.3763V13.9804C10.0242 14.2777 10.2652 14.5187 10.5625 14.5187H15.7709C16.0681 14.5187 16.3091 14.2777 16.3091 13.9804V11.3763C16.3091 11.079 16.0681 10.838 15.7709 10.838H15.2699L13.705 8.60243V7.48746H14.2084C14.5056 7.48746 14.7466 7.24645 14.7466 6.94918V6.41324H16.8451C17.1423 6.41324 17.3834 6.17224 17.3834 5.87496V3.79163C17.3834 3.49435 17.1423 3.25335 16.8451 3.25335ZM11.1008 13.4421V11.9145H15.2326V13.4421H11.1008ZM13.9557 10.838H12.3776L13.1667 9.71075L13.9557 10.838ZM3.87424 1.69319H5.60409L6.54789 3.25335H6.54488H6.54156H6.53821H6.53482H6.5314H6.52795H6.52447H6.52095H6.5174H6.51382H6.5102H6.50655H6.50287H6.49916H6.49542H6.49164H6.48783H6.484H6.48013H6.47623H6.47229H6.46833H6.46434H6.46031H6.45626H6.45217H6.44806H6.44391H6.43974H6.43554H6.4313H6.42704H6.42275H6.41843H6.41408H6.4097H6.40529H6.40085H6.39639H6.3919H6.38738H6.38283H6.37825H6.37365H6.36902H6.36436H6.35968H6.35497H6.35023H6.34546H6.34067H6.33585H6.33101H6.32614H6.32124H6.31632H6.31137H6.3064H6.3014H6.29637H6.29133H6.28625H6.28115H6.27603H6.27088H6.26571H6.26052H6.2553H6.25005H6.24479H6.2395H6.23418H6.22885H6.22349H6.2181H6.2127H6.20727H6.20182H6.19634H6.19085H6.18533H6.17979H6.17423H6.16865H6.16305H6.15742H6.15177H6.14611H6.14042H6.13471H6.12898H6.12323H6.11746H6.11167H6.10586H6.10003H6.09418H6.08831H6.08243H6.07652H6.07059H6.06465H6.05868H6.0527H6.0467H6.04068H6.03465H6.02859H6.02252H6.01643H6.01032H6.00419H5.99805H5.99189H5.98571H5.97952H5.97331H5.96708H5.96084H5.95458H5.94831H5.94201H5.93571H5.92938H5.92305H5.91669H5.91033H5.90394H5.89754H5.89113H5.8847H5.87826H5.87181H5.86534H5.85885H5.85235H5.84584H5.83932H5.83278H5.82623H5.81966H5.81309H5.8065H5.79989H5.79328H5.78665H5.78001H5.77336H5.7667H5.76002H5.75333H5.74664H5.73993H5.73321H5.72648H5.71973H5.71298H5.70622H5.69944H5.69266H5.68586H5.67906H5.67225H5.66542H5.65859H5.65175H5.6449H5.63804H5.63117H5.62429H5.61741H5.61051H5.60361H5.5967H5.58978H5.58285H5.57592H5.56897H5.56203H5.55507H5.5481H5.54113H5.53416H5.52717H5.52018H5.51319H5.50618H5.49917H5.49216H5.48514H5.47811H5.47108H5.46404H5.457H5.44996H5.4429H5.43585H5.42879H5.42172H5.41465H5.40758H5.4005H5.39342H5.38634H5.37925H5.37216H5.36506H5.35796H5.35086H5.34376H5.33665H5.32954H5.32243H5.31532H5.30821H5.30109H5.29397H5.28685H5.27973H5.27261H5.26548H5.25836H5.25123H5.24411H5.23698H5.22985H5.22273H5.2156H5.20847H5.20135H5.19422H5.18709H5.17997H5.17285H5.16572H5.1586H5.15148H5.14436H5.13724H5.13013H5.12301H5.1159H5.10879H5.10169H5.09458H5.08748H5.08038H5.07328H5.06619H5.0591H5.05201H5.04493H5.03785H5.03077H5.0237H5.01664H5.00957H5.00251H4.99546H4.98841H4.98137H4.97433H4.96729H4.96026H4.95324H4.94622H4.93921H4.93221H4.92521H4.91821H4.91122H4.90424H4.89727H4.8903H4.88334H4.87639H4.86944H4.86251H4.85558H4.84865H4.84174H4.83483H4.82793H4.82104H4.81416H4.80729H4.80042H4.79356H4.78672H4.77988H4.77305H4.76623H4.75943H4.75263H4.74584H4.73906H4.73229H4.72553H4.71878H4.71205H4.70532H4.69861H4.6919H4.68521H4.67853H4.67186H4.6652H4.65856H4.65192H4.6453H4.63869H4.6321H4.62551H4.61894H4.61238H4.60584H4.59931H4.59279H4.58628H4.57979H4.57332H4.56685H4.5604H4.55397H4.54755H4.54114H4.53475H4.52838H4.52202H4.51567H4.50934H4.50303H4.49673H4.49044H4.48418H4.47793H4.47169H4.46547H4.45927H4.45308H4.44692H4.44076H4.43463H4.42851H4.42241H4.41633H4.41027H4.40422H4.39819H4.39218H4.38619H4.38022H4.37426H4.36833H4.36241H4.35651H4.35064H4.34478H4.33894H4.33312H4.32732H4.32154H4.31578H4.31004H4.30432H4.29862H4.29294H4.28729H4.28165H4.27604H4.27044H4.26487H4.25932H4.25379H4.24829H4.2428H4.23734H4.2319H4.22648H4.22109H4.21572H4.21037H4.20504H4.19974H4.19446H4.18921H4.18398H4.17877H4.17358H4.16843H4.16329H4.15818H4.15309H4.14803H4.143H4.13798H4.133H4.12804H4.1231H4.11819H4.11331H4.10845H4.10362H4.09882H4.09404H4.08929H4.08456H4.07986H4.07519H4.07055H4.06593H4.06134H4.05678H4.05224H4.04774H4.04326H4.03881H4.03439H4.02999H4.02563H4.02129H4.01699H4.01271H4.00846H4.00424H4.00005H3.99589H3.99176H3.98766H3.98359H3.97955H3.97554H3.97157H3.96762H3.9637H3.95982H3.95596H3.95214H3.94835H3.94459H3.94086H3.93716H3.9335H3.92987H3.92627H3.9227H3.91917H3.91567H3.9122H3.90876H3.90536H3.90199H3.89866H3.89536H3.89209H3.88886H3.88566H3.88249H3.87936H3.87627H3.87424V1.69319ZM6.89924 8.89544V10.5137L4.8508 11.7086V10.0904L6.89924 8.89544ZM7.84373 15.2674L8.22748 16.3067H3.52256L3.90631 15.2674H7.84373ZM4.8508 14.1908V12.9549L6.89924 11.76V14.1908H4.8508ZM6.89924 6.41324V7.64914L4.8508 8.84406V6.41324H6.89924ZM1.69325 5.33668V4.32991H11.5867V5.33668H11.585H11.5784H11.5716H11.5646H11.5574H11.5501H11.5426H11.535H11.5272H11.5192H11.511H11.5027H11.4942H11.4856H11.4767H11.4678H11.4586H11.4493H11.4398H11.4302H11.4204H11.4105H11.4004H11.3901H11.3797H11.3691H11.3584H11.3475H11.3365H11.3253H11.3139H11.3024H11.2908H11.279H11.267H11.255H11.2427H11.2303H11.2178H11.2051H11.1923H11.1793H11.1662H11.1529H11.1395H11.126H11.1123H11.0984H11.0845H11.0704H11.0561H11.0417H11.0272H11.0126H10.9978H10.9829H10.9678H10.9526H10.9373H10.9218H10.9063H10.8905H10.8747H10.8587H10.8426H10.8264H10.81H10.7936H10.7769H10.7602H10.7434H10.7264H10.7093H10.6921H10.6747H10.6573H10.6397H10.622H10.6042H10.5862H10.5682H10.55H10.5317H10.5133H10.4948H10.4762H10.4574H10.4386H10.4196H10.4006H10.3814H10.3621H10.3427H10.3232H10.3036H10.2839H10.2641H10.2442H10.2241H10.204H10.1838H10.1634H10.143H10.1225H10.1018H10.0811H10.0603H10.0394H10.0183H9.99722H9.97601H9.9547H9.9333H9.91181H9.89023H9.86855H9.84679H9.82493H9.80299H9.78095H9.75883H9.73662H9.71433H9.69195H9.66949H9.64694H9.6243H9.60159H9.57879H9.55592H9.53296H9.50992H9.48681H9.46361H9.44034H9.41699H9.39356H9.37006H9.34649H9.32284H9.29912H9.27532H9.25145H9.22752H9.20351H9.17943H9.15528H9.13107H9.10678H9.08243H9.05802H9.03354H9.00899H8.98438H8.95971H8.93498H8.91018H8.88532H8.8604H8.83543H8.81039H8.7853H8.76014H8.73494H8.70967H8.68435H8.65898H8.63355H8.60807H8.58254H8.55695H8.53132H8.50563H8.47989H8.45411H8.42828H8.4024H8.37647H8.3505H8.32448H8.29842H8.27232H8.24617H8.21998H8.19375H8.16748H8.14116H8.11481H8.08842H8.06199H8.03553H8.00902H7.98249H7.95591H7.92931H7.90266H7.87599H7.84928H7.82255H7.79578H7.76898H7.74215H7.7153H7.68841H7.6615H7.63457H7.6076H7.58062H7.5536H7.52657H7.49951H7.47243H7.44533H7.4182H7.39106H7.3639H7.33672H7.30952H7.28231H7.25508H7.22783H7.20057H7.17329H7.146H7.1187H7.09139H7.06406H7.03673H7.00938H6.98203H6.95467H6.9273H6.89992H6.87254H6.84515H6.81775H6.79036H6.76295H6.73555H6.70815H6.68074H6.65333H6.62593H6.59852H6.57112H6.54371H6.51631H6.48892H6.46153H6.43415H6.40677H6.3794H6.35203H6.32468H6.29733H6.26999H6.24266H6.21535H6.18804H6.16075H6.13347H6.10621H6.07896H6.05172H6.02451H5.9973H5.97012H5.94296H5.91581H5.88868H5.86158H5.83449H5.80743H5.78039H5.75337H5.72638H5.69941H5.67247H5.64555H5.61866H5.5918H5.56497H5.53816H5.51139H5.48464H5.45793H5.43125H5.4046H5.37799H5.35141H5.32486H5.29835H5.27188H5.24544H5.21904H5.19268H5.16636H5.14008H5.11384H5.08764H5.06149H5.03537H5.0093H4.98328H4.95729H4.93136H4.90547H4.87963H4.85383H4.82809H4.80239H4.77675H4.75115H4.72561H4.70011H4.67467H4.64929H4.62396H4.59868H4.57346H4.5483H4.52319H4.49814H4.47315H4.44822H4.42335H4.39855H4.3738H4.34911H4.32449H4.29993H4.27544H4.25101H4.22664H4.20235H4.17812H4.15396H4.12986H4.10584H4.08189H4.05801H4.0342H4.01046H3.98679H3.9632H3.93969H3.91624H3.89288H3.86959H3.84638H3.82325H3.80019H3.77722H3.75432H3.73151H3.70878H3.68613H3.66356H3.64108H3.61869H3.59637H3.57415H3.55201H3.52996H3.50799H3.48612H3.46433H3.44264H3.42104H3.39953H3.37811H3.35678H3.33555H3.31441H3.29337H3.27243H3.25158H3.23083H3.21018H3.18962H3.16917H3.14882H3.12856H3.10841H3.08837H3.06842H3.04858H3.02885H3.00922H2.98969H2.97028H2.95097H2.93177H2.91268H2.8937H2.87483H2.85607H2.83742H2.81889H2.80046H2.78216H2.76397H2.74589H2.72793H2.71009H2.69236H2.67475H2.65727H2.6399H2.62265H2.60553H2.58852H2.57164H2.55489H2.53825H2.52175H2.50537H2.48911H2.47298H2.45698H2.44111H2.42537H2.40975H2.39427H2.37892H2.3637H2.34862H2.33367H2.31885H2.30417H2.28962H2.27521H2.26094H2.24681H2.23281H2.21895H2.20524H2.19166H2.17823H2.16494H2.15179H2.13878H2.12592H2.11321H2.10064H2.08822H2.07594H2.06381H2.05184H2.04001H2.02833H2.0168H2.00543H1.9942H1.98313H1.97221H1.96145H1.95085H1.94039H1.9301H1.91996H1.90999H1.90017H1.89051H1.88101H1.87167H1.86249H1.85348H1.84462H1.83594H1.82741H1.81906H1.81087H1.80284H1.79498H1.7873H1.77978H1.77243H1.76525H1.75824H1.7514H1.74474H1.73825H1.73193H1.72579H1.71982H1.71403H1.70842H1.70298H1.69772H1.69325ZM13.6701 6.4109H12.6633V3.28824H13.6701V6.4109ZM16.3068 5.33668H16.305H16.3019H16.2988H16.2957H16.2926H16.2895H16.2865H16.2834H16.2803H16.2772H16.274H16.2709H16.2678H16.2647H16.2616H16.2585H16.2553H16.2522H16.2491H16.2459H16.2428H16.2397H16.2365H16.2334H16.2302H16.2271H16.2239H16.2208H16.2176H16.2144H16.2113H16.2081H16.2049H16.2017H16.1986H16.1954H16.1922H16.189H16.1858H16.1826H16.1794H16.1762H16.173H16.1698H16.1666H16.1634H16.1602H16.157H16.1538H16.1506H16.1473H16.1441H16.1409H16.1377H16.1344H16.1312H16.128H16.1247H16.1215H16.1182H16.115H16.1118H16.1085H16.1053H16.102H16.0987H16.0955H16.0922H16.089H16.0857H16.0824H16.0792H16.0759H16.0726H16.0693H16.0661H16.0628H16.0595H16.0562H16.0529H16.0496H16.0463H16.043H16.0398H16.0365H16.0332H16.0299H16.0266H16.0233H16.0199H16.0166H16.0133H16.01H16.0067H16.0034H16.0001H15.9967H15.9934H15.9901H15.9868H15.9834H15.9801H15.9768H15.9735H15.9701H15.9668H15.9635H15.9601H15.9568H15.9534H15.9501H15.9467H15.9434H15.9401H15.9367H15.9334H15.93H15.9266H15.9233H15.9199H15.9166H15.9132H15.9099H15.9065H15.9031H15.8998H15.8964H15.893H15.8897H15.8863H15.8829H15.8796H15.8762H15.8728H15.8694H15.866H15.8627H15.8593H15.8559H15.8525H15.8491H15.8458H15.8424H15.839H15.8356H15.8322H15.8288H15.8254H15.822H15.8186H15.8153H15.8119H15.8085H15.8051H15.8017H15.7983H15.7949H15.7915H15.7881H15.7847H15.7813H15.7779H15.7745H15.7711H15.7677H15.7643H15.7608H15.7574H15.754H15.7506H15.7472H15.7438H15.7404H15.737H15.7336H15.7302H15.7268H15.7233H15.7199H15.7165H15.7131H15.7097H15.7063H15.7028H15.6994H15.696H15.6926H15.6892H15.6858H15.6823H15.6789H15.6755H15.6721H15.6687H15.6653H15.6618H15.6584H15.655H15.6516H15.6482H15.6447H15.6413H15.6379H15.6345H15.631H15.6276H15.6242H15.6208H15.6174H15.6139H15.6105H15.6071H15.6037H15.6003H15.5968H15.5934H15.59H15.5866H15.5832H15.5797H15.5763H15.5729H15.5695H15.566H15.5626H15.5592H15.5558H15.5524H15.549H15.5455H15.5421H15.5387H15.5353H15.5319H15.5284H15.525H15.5216H15.5182H15.5148H15.5114H15.508H15.5045H15.5011H15.4977H15.4943H15.4909H15.4875H15.4841H15.4807H15.4773H15.4738H15.4704H15.467H15.4636H15.4602H15.4568H15.4534H15.45H15.4466H15.4432H15.4398H15.4364H15.433H15.4296H15.4262H15.4228H15.4194H15.416H15.4126H15.4092H15.4058H15.4024H15.399H15.3957H15.3923H15.3889H15.3855H15.3821H15.3787H15.3753H15.372H15.3686H15.3652H15.3618H15.3584H15.3551H15.3517H15.3483H15.3449H15.3416H15.3382H15.3348H15.3315H15.3281H15.3247H15.3214H15.318H15.3146H15.3113H15.3079H15.3046H15.3012H15.2978H15.2945H15.2911H15.2878H15.2844H15.2811H15.2778H15.2744H15.2711H15.2677H15.2644H15.2611H15.2577H15.2544H15.251H15.2477H15.2444H15.2411H15.2377H15.2344H15.2311H15.2278H15.2244H15.2211H15.2178H15.2145H15.2112H15.2079H15.2046H15.2013H15.198H15.1947H15.1914H15.1881H15.1848H15.1815H15.1782H15.1749H15.1716H15.1683H15.165H15.1618H15.1585H15.1552H15.1519H15.1487H15.1454H15.1421H15.1388H15.1356H15.1323H15.1291H15.1258H15.1225H15.1193H15.116H15.1128H15.1095H15.1063H15.1031H15.0998H15.0966H15.0934H15.0901H15.0869H15.0837H15.0804H15.0772H15.074H15.0708H15.0676H15.0644H15.0611H15.0579H15.0547H15.0515H15.0483H15.0451H15.0419H15.0388H15.0356H15.0324H15.0292H15.026H15.0228H15.0197H15.0165H15.0133H15.0102H15.007H15.0038H15.0007H14.9975H14.9944H14.9912H14.9881H14.9849H14.9818H14.9787H14.9755H14.9724H14.9693H14.9662H14.963H14.9599H14.9568H14.9537H14.9506H14.9475H14.9444H14.9413H14.9382H14.9351H14.932H14.9289H14.9258H14.9227H14.9197H14.9166H14.9135H14.9105H14.9074H14.9043H14.9013H14.8982H14.8952H14.8921H14.8891H14.886H14.883H14.88H14.8769H14.8739H14.8709H14.8679H14.8649H14.8618H14.8588H14.8558H14.8528H14.8498H14.8468H14.8439H14.8409H14.8379H14.8349H14.8319H14.829H14.826H14.823H14.8201H14.8171H14.8142H14.8112H14.8083H14.8053H14.8024H14.7995H14.7965H14.7936H14.7907H14.7878H14.7849H14.782H14.779H14.7761H14.7733H14.7704H14.7675H14.7646H14.7617H14.7588H14.756H14.7531H14.7502H14.7474H14.7466V4.32991H16.3068V5.33668Z" stroke-width="0.1"/>
</svg>
