<svg width="20" height="20" viewBox="0 0 20 20" fill="none" xmlns="http://www.w3.org/2000/svg">
<path d="M16.5858 7.15533C16.5449 7.06699 16.4941 6.98283 16.4224 6.91116L11.4224 1.91116C11.3508 1.83949 11.2666 1.78866 11.1783 1.74783C11.1533 1.73616 11.1266 1.72949 11.0999 1.72033C11.0299 1.69699 10.9583 1.68199 10.8841 1.67783C10.8666 1.67616 10.8508 1.66699 10.8333 1.66699H4.99992C4.08075 1.66699 3.33325 2.41449 3.33325 3.33366V16.667C3.33325 17.5862 4.08075 18.3337 4.99992 18.3337H14.9999C15.9191 18.3337 16.6666 17.5862 16.6666 16.667V7.50033C16.6666 7.48283 16.6574 7.46699 16.6558 7.44866C16.6516 7.37449 16.6374 7.30283 16.6133 7.23283C16.6049 7.20616 16.5974 7.18033 16.5858 7.15533ZM13.8216 6.66699H11.6666V4.51199L13.8216 6.66699ZM4.99992 16.667V3.33366H9.99992V7.50033C9.99992 7.96116 10.3724 8.33366 10.8333 8.33366H14.9999L15.0016 16.667H4.99992Z" />
<path d="M6.66675 10.0003H13.3334V11.667H6.66675V10.0003ZM6.66675 13.3337H13.3334V15.0003H6.66675V13.3337ZM6.66675 6.66699H8.33341V8.33366H6.66675V6.66699Z" />
</svg>
