<svg width="16" height="16" viewBox="0 0 16 16" fill="none" xmlns="http://www.w3.org/2000/svg">
<path d="M1.33333 8.83333H6.33333C6.79333 8.83333 7.16667 8.46083 7.16667 8V1.33333C7.16667 0.8725 6.79333 0.5 6.33333 0.5H1.33333C0.873333 0.5 0.5 0.8725 0.5 1.33333V8C0.5 8.46083 0.873333 8.83333 1.33333 8.83333ZM0.5 14.6667C0.5 15.1275 0.873333 15.5 1.33333 15.5H6.33333C6.79333 15.5 7.16667 15.1275 7.16667 14.6667V11.3333C7.16667 10.8725 6.79333 10.5 6.33333 10.5H1.33333C0.873333 10.5 0.5 10.8725 0.5 11.3333V14.6667ZM8.83333 14.6667C8.83333 15.1275 9.20583 15.5 9.66667 15.5H14.6667C15.1275 15.5 15.5 15.1275 15.5 14.6667V8.83333C15.5 8.3725 15.1275 8 14.6667 8H9.66667C9.20583 8 8.83333 8.3725 8.83333 8.83333V14.6667ZM9.66667 6.33333H14.6667C15.1275 6.33333 15.5 5.96083 15.5 5.5V1.33333C15.5 0.8725 15.1275 0.5 14.6667 0.5H9.66667C9.20583 0.5 8.83333 0.8725 8.83333 1.33333V5.5C8.83333 5.96083 9.20583 6.33333 9.66667 6.33333Z"/>
</svg>
