<svg width="32" height="32" viewBox="0 0 32 32" fill="none" xmlns="http://www.w3.org/2000/svg">
    <path d="M15.8171 9.2959V24.7168" stroke="currentColor" stroke-linecap="round" />
    <path
        d="M25.4476 7.64983C25.8336 7.64983 26.9836 7.64983 28.4952 7.64983C28.6903 5.40679 26.9105 4.96794 25.9962 5.02889C25.5289 5.02889 23.6556 5.02889 19.901 5.02889C16.1848 2.88337 12.9887 4.13492 11.8552 5.02889C10.8597 5.02889 8.24694 5.02889 5.76009 5.02889C3.27323 5.02889 2.9766 6.77619 3.13914 7.64985H8.56381M8.56381 7.64985L14.2647 17.5241L14.2933 17.5851V17.646M8.56381 7.64985L3.13914 17.5241M3.13914 17.5241H11.1238M3.13914 17.5241L3.07809 17.7679M10.941 7.46698H23.1924M23.1924 7.46698L18.0724 17.5241H25.9962M23.1924 7.46698L28.9219 17.5241V17.9508"
        stroke="currentColor" fill="white" stroke-linecap="round" stroke-linejoin="bevel" />
    <path
        d="M11.9772 25.0337H19.779C21.1187 25.0337 22.2048 26.1198 22.2048 27.4595V27.6909H9.55145V27.4595C9.55145 26.1198 10.6375 25.0337 11.9772 25.0337Z"
        stroke="currentColor" fill="white" stroke-linecap="round" />
    <path
        d="M14.2933 17.5844C14.2933 20.3448 12.0556 22.5825 9.29519 22.5825C8.80672 22.5825 8.32289 22.5825 7.83258 22.5825C5.20687 22.5825 3.07809 20.454 3.07809 17.8282L3.07809 17.6633"
        stroke="currentColor" fill="white" stroke-linecap="round" />
    <path
        d="M28.9219 17.5844C28.9219 20.3448 26.684 22.5825 23.9237 22.5825C23.517 22.5825 23.113 22.5825
    22.7049 22.5825C20.0792 22.5825 17.9505 20.454 17.9505 17.8282L17.9505 17.6633"
        stroke="currentColor" fill='white' stroke-linecap="round" />
</svg>