<svg width="18" height="18" viewBox="0 0 18 18" fill="none" xmlns="http://www.w3.org/2000/svg">
<path d="M9.28336 0.69657L9.28336 0.696568C9.10978 0.589165 8.89041 0.589165 8.71684 0.696568L8.71684 0.69657L1.85242 4.94462C1.69387 5.04273 1.59741 5.21592 1.59741 5.40234V7.03401C1.59741 7.33129 1.83842 7.57229 2.13569 7.57229H2.57801V12.4824C2.00555 12.7001 1.59738 13.2543 1.59738 13.9025V14.4437C1.02492 14.6614 0.616748 15.2156 0.616748 15.8638V16.8444C0.616748 17.1417 0.857754 17.3827 1.15503 17.3827H16.8451C17.1424 17.3827 17.3834 17.1417 17.3834 16.8444V15.8638C17.3834 15.2156 16.9752 14.6614 16.4028 14.4437V13.9025C16.4028 13.2543 15.9946 12.7001 15.4222 12.4824V7.57229H15.8645C16.1618 7.57229 16.4028 7.33129 16.4028 7.03401V5.40234C16.4028 5.21592 16.3063 5.04273 16.1478 4.94462L9.28336 0.69657ZM7.48117 7.57229V12.3836H5.61584V7.57229H7.48117ZM8.55773 12.3836V7.57229H9.44243V12.3836H8.55773ZM10.519 7.57229H12.3843V12.3836H10.519V7.57229ZM14.3456 12.3836H13.4609V7.57229H14.3456V12.3836ZM2.67394 5.70227L9.00008 1.78731L15.3262 5.70223V6.49573H2.67394V5.70227ZM4.53927 7.57229V12.3836H3.65457V7.57229H4.53927ZM2.67394 13.9025C2.67394 13.6586 2.87242 13.4602 3.11629 13.4602H14.8839C15.1277 13.4602 15.3262 13.6586 15.3262 13.9025V14.3449H2.67394V13.9025ZM1.69331 16.3061V15.8638C1.69331 15.6199 1.89179 15.4214 2.13566 15.4214H15.8645C16.1084 15.4214 16.3069 15.6199 16.3069 15.8638V16.3061H1.69331Z"  stroke-width="0.1"/>
<path d="M9.00001 2.93848C8.16456 2.93848 7.48486 3.61817 7.48486 4.45363C7.48486 5.28908 8.16456 5.96878 9.00001 5.96878C9.83547 5.96878 10.5152 5.28908 10.5152 4.45363C10.5152 3.61817 9.83547 2.93848 9.00001 2.93848ZM9.00001 4.96148C8.71998 4.96148 8.49217 4.73366 8.49217 4.45363C8.49217 4.1736 8.71998 3.94578 9.00001 3.94578C9.28005 3.94578 9.50786 4.1736 9.50786 4.45363C9.50786 4.73366 9.28005 4.96148 9.00001 4.96148Z"/>
</svg>
