<?xml version="1.0" standalone="no"?>
<!DOCTYPE svg PUBLIC "-//W3C//DTD SVG 20010904//EN" "http://www.w3.org/TR/2001/REC-SVG-20010904/DTD/svg10.dtd">
<svg version="1.0" xmlns="http://www.w3.org/2000/svg"
    width="20" height="20" viewBox="0 0 375.000000 336.000000"
    preserveAspectRatio="xMidYMid meet">

    <g transform="translate(0.000000,336.000000) scale(0.100000,-0.100000)"
        fill="currentColor" stroke="none">
        <path
            d="M2520 3155 c-99 -144 -504 -285 -880 -306 -395 -22 -622 -79 -809
-203 -76 -51 -158 -135 -167 -171 -4 -17 39 -120 154 -367 136 -293 163 -344
185 -352 21 -8 31 -6 47 9 11 10 20 26 20 36 0 10 -65 158 -145 330 -80 172
-144 320 -143 328 5 25 117 110 193 146 178 85 427 135 678 135 105 0 325 42
506 96 135 41 318 127 377 178 l41 35 62 -152 c34 -84 110 -282 170 -442 125
-333 123 -304 21 -398 -82 -76 -213 -140 -355 -173 -154 -36 -155 -37 -155
-78 0 -51 24 -61 109 -46 100 19 234 65 325 112 99 52 212 156 252 232 l28 53
-98 264 c-115 309 -244 636 -276 699 -31 63 -49 80 -81 80 -22 0 -35 -10 -59
-45z" />
        <path
            d="M2340 2803 c-14 -2 -67 -13 -118 -24 -73 -16 -96 -26 -108 -44 -12
-18 -13 -28 -4 -44 19 -37 41 -41 121 -22 129 32 134 33 158 7 19 -21 53 -38
127 -66 14 -5 33 -40 62 -116 l43 -109 -30 -55 c-16 -30 -32 -71 -36 -91 l-7
-36 -126 -33 c-158 -41 -188 -53 -197 -79 -8 -25 9 -58 35 -66 16 -5 110 17
336 80 l51 15 7 56 c6 53 38 134 54 134 4 0 15 7 25 14 17 13 16 18 -13 97
-16 46 -49 130 -72 186 l-43 101 -55 11 c-64 13 -97 33 -110 67 -10 24 -31 28
-100 17z" />
        <path
            d="M1725 2646 c-55 -20 -129 -102 -151 -168 -36 -106 -19 -248 43 -354
28 -49 106 -125 153 -149 45 -23 147 -31 195 -15 51 17 111 73 143 134 25 47
27 61 27 166 0 108 -2 119 -31 180 -63 131 -163 209 -278 216 -38 3 -76 -1
-101 -10z m188 -132 c136 -96 165 -343 51 -433 -33 -26 -101 -28 -150 -5 -55
26 -111 98 -134 172 -35 113 -22 198 42 265 36 38 39 39 93 35 40 -3 67 -13
98 -34z" />
        <path
            d="M1270 2561 c-162 -44 -175 -50 -178 -72 -9 -88 -26 -135 -60 -166
l-36 -33 22 -68 c12 -37 44 -119 70 -182 l48 -115 54 -12 c72 -16 96 -30 111
-64 6 -16 19 -29 28 -29 27 0 131 18 208 36 82 19 109 40 99 78 -11 44 -34 48
-147 22 l-103 -23 -41 32 c-23 17 -63 37 -88 44 -45 13 -47 15 -78 90 -62 149
-62 147 -34 190 14 20 30 60 37 88 l12 51 141 37 c156 41 185 55 185 89 0 27
-29 56 -56 55 -10 -1 -98 -22 -194 -48z" />
        <path
            d="M989 1507 c-129 -84 -250 -163 -271 -175 l-36 -22 -31 50 c-17 27
-33 50 -35 50 -18 0 -326 -205 -331 -220 -8 -26 11 -59 39 -66 18 -4 51 12
137 65 62 39 116 71 120 71 6 0 369 -592 369 -603 0 -2 -38 -32 -85 -66 -47
-34 -90 -71 -96 -82 -15 -29 13 -69 47 -69 31 0 187 113 372 267 l123 103 416
0 416 0 226 104 c124 57 316 143 426 190 305 132 397 180 453 234 27 27 57 63
67 81 24 47 23 115 -2 148 -38 52 -66 66 -135 65 -53 0 -81 -7 -171 -46 -120
-51 -275 -101 -571 -182 -109 -29 -200 -54 -201 -54 -2 0 3 17 11 38 7 20 13
51 14 68 0 48 -49 135 -98 171 l-44 33 -447 0 -447 0 -235 -153z m1109 37 c64
-45 64 -120 0 -190 l-41 -44 -293 0 -294 0 0 -55 0 -55 308 0 307 0 230 60
c314 83 571 161 690 210 130 54 162 63 192 55 34 -8 38 -29 13 -69 -34 -56
-137 -114 -405 -231 -137 -60 -351 -155 -475 -212 l-225 -103 -420 0 -421 0
-108 -90 c-59 -49 -111 -90 -115 -90 -6 0 -287 457 -293 477 -2 7 114 89 257
182 l260 170 405 1 c352 0 409 -2 428 -16z" />
    </g>
</svg>