<svg width="16" height="18" viewBox="0 0 16 18" fill="none" xmlns="http://www.w3.org/2000/svg">
<path id="flash" d="M14.7975 8.9726L14.7978 8.97399C14.8076 9.02262 14.7894 9.07423 14.7463 9.10688C14.7462 9.10697 14.7461 9.10707 14.7459 9.10716L4.74709 16.6063L4.74609 16.607C4.72355 16.624 4.6967 16.633 4.66709 16.633C4.63451 16.633 4.60296 16.6215 4.57819 16.6002C4.53175 16.5583 4.52028 16.4894 4.5517 16.4341C4.55173 16.4341 4.55176 16.434 4.5518 16.4339L7.33903 11.5561L7.79737 10.7539L6.90115 10.5297L1.30198 9.12888L1.30055 9.12853C1.25249 9.11661 1.21528 9.07841 1.20459 9.03027L1.20419 9.02851C1.19342 8.98061 1.21032 8.92918 1.25066 8.89614L10.417 1.39639L10.4184 1.39524C10.4638 1.3579 10.5303 1.35548 10.5799 1.39299L10.5821 1.39462C10.6296 1.43023 10.6475 1.49504 10.6232 1.55129L10.6228 1.55226L8.50866 6.48643L8.18501 7.24178L8.98222 7.4412L14.6989 8.8712L14.702 8.87196C14.7495 8.88362 14.7874 8.92221 14.7975 8.9726Z" fill="#FCFDFF"  stroke-width="1.4"/>
</svg>
