<svg width="32" height="32" viewBox="0 0 32 32" fill="none" xmlns="http://www.w3.org/2000/svg">
    <path
        d="M13.1891 16.3784L16.0846 17.1538L16.148 17.1704H28.4859C28.4862 17.2014 28.4855 17.2337 28.4859 17.2671C28.4908 17.641 28.5064 18.1617 28.5475 18.7476C28.6285 19.9038 28.8136 21.373 29.2496 22.4702C29.352 22.7279 29.5096 22.9461 29.6559 23.1235C29.7837 23.2787 29.9756 23.4837 30.066 23.5884C30.1844 23.7255 30.236 23.8069 30.2555 23.856C30.2524 23.8609 30.2484 23.8646 30.2457 23.8687C30.2118 23.8524 30.1557 23.8208 30.0748 23.7583C29.9264 23.6437 29.7579 23.478 29.5592 23.2729C29.3695 23.0773 29.1507 22.8435 28.9322 22.6343C28.7131 22.4244 28.4674 22.2121 28.2057 22.0562C27.9451 21.901 27.627 21.7768 27.275 21.8032C26.5989 21.8539 26.1223 22.4086 25.7633 23.2739C25.6245 23.2656 25.5281 23.2175 25.4469 23.1548C25.2914 23.0348 25.158 22.8384 24.9957 22.5601C24.8585 22.3249 24.6696 21.9673 24.4225 21.7329C24.285 21.6027 24.1054 21.4834 23.8766 21.4351C23.6457 21.3863 23.4131 21.4196 23.1891 21.5093C22.7781 21.6738 22.465 21.9667 22.2193 22.2456C22.095 22.3868 21.9801 22.5331 21.8766 22.6685C21.7695 22.8083 21.6785 22.931 21.5855 23.0454C21.3896 23.2865 21.262 23.3926 21.1705 23.4282C21.1362 23.4416 21.059 23.4723 20.858 23.3315C20.578 23.1355 20.3183 22.903 20.023 22.6528C19.7429 22.4154 19.4271 22.159 19.0836 21.9849C18.728 21.8047 18.3153 21.6983 17.8551 21.7944C17.4044 21.8886 16.9768 22.1627 16.5543 22.6021C16.2289 22.9404 15.9477 23.0753 15.7184 23.1187C15.4872 23.1623 15.2524 23.1236 15.0025 23.02C14.7478 22.9143 14.4978 22.7498 14.2457 22.564C14.0184 22.3964 13.7403 22.1718 13.5191 22.0356C13.1334 21.7982 12.7435 21.8597 12.4371 22.0024C12.1577 22.1327 11.8923 22.3536 11.6764 22.5366C11.4392 22.7376 11.2355 22.9157 11.024 23.0513C10.8159 23.1847 10.6529 23.2417 10.5143 23.2417C10.2202 23.2417 10.1007 23.1119 9.80038 22.771C9.65993 22.6116 9.47087 22.4004 9.21152 22.2378C8.93892 22.0669 8.60991 21.9614 8.19785 21.9614C7.07475 21.9615 6.51585 22.7064 6.16953 23.188C5.97749 23.455 5.8791 23.5914 5.78574 23.6646C5.82396 23.5988 5.88142 23.5103 5.96542 23.394C6.1044 23.2018 6.31095 22.9374 6.46738 22.6792C6.62348 22.4215 6.78574 22.0855 6.78574 21.7144C6.78574 20.9031 6.37478 20.2052 5.86484 19.6226C5.35361 19.0386 4.68861 18.51 4.08066 18.0405C3.4519 17.555 2.89869 17.1429 2.52499 16.7544C2.37846 16.602 2.28414 16.4785 2.22519 16.3784H13.1891Z"
        stroke="currentColor" fill="white" stroke-linecap="round" />
    <path
        d="M28 26.8568C26.4679 27.7842 25.2482 28.8356 23.5775 28.1905C22.3887 27.7315 20.5105 25.5694 19.2914 26.057C18.0724 26.5446 17.5848 27.3982 16.4876 27.8246C15.9965 28.0155 15.549 27.7393 15.2076 27.3982C14.781 26.9718 13.6229 25.2649 11.9771 26.9715C10.6606 28.3369 9.77439 26.3978 8.67658 26.5446C7.50496 26.7013 7.52762 27.8246 6.43048 27.8246C5.33333 27.8246 5.39429 26.5446 4.11429 26.5446C2.40762 26.5446 1.85905 27.6418 1.37143 28.1903"
        stroke="currentColor" fill="white" stroke-linecap="round" />
    <mask id="path-3-inside-1_1098_1701" fill="white">
        <path d="M5 11H11V16H5V11Z" />
    </mask>
    <path
        d="M5 11V10H4V11H5ZM11 11H12V10H11V11ZM5 11V12H11V11V10H5V11ZM11 11H10V16H11H12V11H11ZM5 16H6V11H5H4V16H5Z"
        fill="currentColor" mask="url(#path-3-inside-1_1098_1701)" />
    <mask id="path-5-inside-2_1098_1701" fill="white">
        <path d="M17.1429 11.1431H25.1429V17.1431H17.1429V11.1431Z" />
    </mask>
    <path
        d="M17.1429 11.1431V10.1431H16.1429V11.1431H17.1429ZM25.1429 11.1431H26.1429V10.1431H25.1429V11.1431ZM17.1429 11.1431V12.1431H25.1429V11.1431V10.1431H17.1429V11.1431ZM25.1429 11.1431H24.1429V17.1431H25.1429H26.1429V11.1431H25.1429ZM17.1429 17.1431H18.1429V11.1431H17.1429H16.1429V17.1431H17.1429Z"
        fill="currentColor" mask="url(#path-5-inside-2_1098_1701)" />
    <rect x="14.8133" y="7.35693" width="6" height="4" stroke="currentColor" fill="white"
        stroke-linecap="round" />
    <mask id="path-8-inside-3_1098_1701" fill="white">
        <path d="M8.07143 6.85693H17.0714V11.8569H8.07143V6.85693Z" />
    </mask>
    <path
        d="M8.07143 6.85693V5.85693H7.07143V6.85693H8.07143ZM8.07143 11.8569H7.07143V12.8569H8.07143V11.8569ZM8.07143 6.85693V7.85693H17.0714V6.85693V5.85693H8.07143V6.85693ZM17.0714 11.8569V10.8569H8.07143V11.8569V12.8569H17.0714V11.8569ZM8.07143 11.8569H9.07143V6.85693H8.07143H7.07143V11.8569H8.07143Z"
        fill="currentColor" mask="url(#path-8-inside-3_1098_1701)" />
    <path
        d="M28.4141 17.1428V13.1428H29.4095V9.99993H28.2482V7.57136H27.3081M22.5524 7.57136H24.8749M24.8749 7.57136V5.49993M24.8749 7.57136C25.8252 7.57136 26.3579 7.57136 27.3081 7.57136M27.3081 7.57136V2.28564"
        stroke="currentColor" fill="white" stroke-linecap="round" />
</svg>