<svg width="20" height="20" viewBox="0 0 100 100" fill="none" xmlns="http://www.w3.org/2000/svg">
    <path
        d="M32.2137 40.3678C33.7427 37.9214 38.2685 33.0745 44.1398 33.258C51.479 33.4873 56.2953 33.258 57.4421 33.258C58.5888 33.258 65.4693 36.469 67.5334 39.9092M54.0018 34.8635C53.696 39.2212 53.2679 50.6427 54.0018 51.3766M45.7987 34.8635C46.1045 39.2212 46.5326 50.6427 45.7987 51.3766"
        stroke="#0C0C0C" stroke-width="3.76276" stroke-linecap="round" />
    <path
        d="M77.6249 52.9804C74.8727 52.9804 67.8088 52.9804 61.5708 52.9804C57.7177 45.6413 68.069 44.8768 73.7263 45.4119C83.4507 31.1006 89.704 36.3908 91.6152 40.8249V65.8239C91.4317 79.7683 84.276 79.0532 68.9096 79.0532M77.6249 52.9804L82.6706 49.7695M77.6249 52.9804V64.9065C61.5708 64.9065 60.4696 65.6863 58.8183 76.1446L55.3781 97.4741M64.552 97.4741L68.9096 79.0532M69.5977 76.1446L68.9096 79.0532"
        stroke="#0C0C0C" stroke-width="3.76276" stroke-linecap="round" />
    <path
        d="M21.8931 52.9804C24.6452 52.9804 31.7091 52.9804 37.9471 52.9804C41.8002 45.6413 31.4489 44.8768 25.7917 45.4119C16.0673 31.1006 9.8139 36.3908 7.90277 40.8249V65.8239C8.08625 79.7683 15.2419 79.0532 30.6083 79.0532M21.8931 52.9804L16.8474 49.7695M21.8931 52.9804V64.9065C37.9471 64.9065 39.0483 65.6863 40.6997 76.1446L44.1399 97.4741M34.9659 97.4741L30.6083 79.0532M29.9203 76.1446L30.6083 79.0532"
        stroke="#0C0C0C" stroke-width="3.76276" stroke-linecap="round" />
    <path
        d="M22.581 53.2094H75.5606M8.13203 39.6778C5.4563 39.6778 1.71026 37.3384 8.13203 27.981C8.13203 16.2842 10.8844 12.3853 15.9301 12.3853C20.9757 12.3853 27.6268 16.0548 23.7279 24.7701C21.5732 29.5864 19.5996 26.8342 18.6822 32.3386"
        stroke="#0C0C0C" stroke-width="3.76276" stroke-linecap="round" />
    <path
        d="M70.992 18.4627C70.8586 16.7945 72.1763 15.3672 73.8498 15.3672H94.0233C95.6066 15.3672 96.8902 16.6507 96.8902 18.234C96.8902 19.8174 95.6066 21.1009 94.0233 21.1009H73.8498C72.3551 21.1009 71.1112 19.9526 70.992 18.4627Z"
        stroke="#0C0C0C" stroke-width="3.76276" />
    <path
        d="M71.6438 15.8C71.6438 8.82353 77.2994 3.16794 84.2759 3.16794C91.2525 3.16794 96.908 8.82353 96.908 15.8H93.1453C93.1453 10.9016 89.1743 6.93069 84.2759 6.93069C79.3775 6.93069 75.4066 10.9016 75.4066 15.8H71.6438ZM95.0267 15.8H73.5252H95.0267ZM71.6438 15.8C71.6438 8.82353 77.2994 3.16794 84.2759 3.16794V6.93069C79.3775 6.93069 75.4066 10.9016 75.4066 15.8H71.6438ZM84.2759 3.16794C91.2525 3.16794 96.908 8.82353 96.908 15.8H93.1453C93.1453 10.9016 89.1743 6.93069 84.2759 6.93069V3.16794Z"
        fill="#0C0C0C" />
    <path
        d="M79.5562 5.44945C79.5562 2.89041 81.6308 0.815888 84.1898 0.815888H84.2758C86.8349 0.815888 88.9094 2.89041 88.9094 5.44945H85.1466C85.1466 4.96852 84.7567 4.57864 84.2758 4.57864H84.1898C83.7089 4.57864 83.319 4.96852 83.319 5.44945H79.5562ZM87.028 11.2978H81.4376H87.028ZM79.5562 11.2978V5.44945C79.5562 2.89041 81.6308 0.815888 84.1898 0.815888V4.57864C83.7089 4.57864 83.319 4.96852 83.319 5.44945V11.2978H79.5562ZM84.2758 0.815888C86.8349 0.815888 88.9094 2.89041 88.9094 5.44945V11.2978H85.1466V5.44945C85.1466 4.96852 84.7567 4.57864 84.2758 4.57864V0.815888Z"
        fill="#0C0C0C" />
    <path
        d="M76.315 21.2798C76.1761 22.3127 76.2316 24.8212 77.5649 26.5919C79.2314 28.8053 81.1065 31.6827 81.1065 32.5681M91.3141 21.2798C91.3141 25.0425 88.8976 30.2661 88.3976 30.7973"
        stroke="#0C0C0C" stroke-width="3.76276" stroke-linecap="round" />
</svg>