<svg width="32" height="32" viewBox="0 0 32 32" xmlns="http://www.w3.org/2000/svg">
    <path
        d="M28.28 21.1865C27.4318 23.1925 26.105 24.9601 24.4158 26.3349C22.7266 27.7097 20.7264 28.6497 18.5899 29.0729C16.4535 29.496 14.2459 29.3894 12.1602 28.7622C10.0745 28.1351 8.17416 27.0066 6.62535 25.4754C5.07654 23.9442 3.92641 22.0568 3.27551 19.9784C2.6246 17.9 2.49274 15.6938 2.89146 13.5527C3.29017 11.4115 4.20732 9.40067 5.56272 7.69588C6.91812 5.99108 8.6705 4.64426 10.6667 3.77317M29.3333 15.9998C29.3333 14.2489 28.9885 12.5151 28.3184 10.8974C27.6483 9.27972 26.6662 7.80986 25.4281 6.57175C24.19 5.33363 22.7201 4.35151 21.1024 3.68144C19.4848 3.01138 17.751 2.6665 16 2.6665V15.9998H29.3333Z"
        stroke="currentColor" fill="white" stroke-linecap="round" stroke-linejoin="round" />
</svg>