<svg width="20" height="20" viewBox="0 0 20 20" fill="none" xmlns="http://www.w3.org/2000/svg">
<path d="M15.8333 1.66699H4.16667C3.2475 1.66699 2.5 2.41449 2.5 3.33366V16.667C2.5 17.5862 3.2475 18.3337 4.16667 18.3337H15.8333C16.7525 18.3337 17.5 17.5862 17.5 16.667V3.33366C17.5 2.41449 16.7525 1.66699 15.8333 1.66699ZM4.16667 16.667V3.33366H15.8333L15.8342 16.667H4.16667Z" />
<path d="M5.83325 10H7.49992V11.6667H5.83325V10ZM5.83325 13.3333H7.49992V15H5.83325V13.3333ZM9.16659 10H10.8333V11.6667H9.16659V10ZM5.83325 5H14.1666V8.33333H5.83325V5ZM9.16659 13.3333H10.8333V15H9.16659V13.3333ZM12.4999 10H14.1666V15H12.4999V10Z" />
</svg>
