<svg width="20" height="20" viewBox="0 0 20 20" fill="none" xmlns="http://www.w3.org/2000/svg">
    <path d="M15.5 9.5V6.5H6.5V9.5H15.5Z" stroke="currentColor" />
    <path
        d="M17.582 2.89355C18.2271 2.95944 18.7305 3.5045 18.7305 4.16699V12H17.7305V4.16699C17.7305 4.01259 17.6055 3.88711 17.4512 3.88672H4.18066C4.02602 3.88672 3.90039 4.01235 3.90039 4.16699V22.3086C3.90062 22.463 4.02617 22.5879 4.18066 22.5879H12V23.5879H4.18066L4.0498 23.582C3.44739 23.521 2.96862 23.0418 2.90723 22.4395L2.90039 22.3086V4.16699C2.90039 3.50416 3.40423 2.95898 4.0498 2.89355L4.18066 2.88672H17.4512L17.582 2.89355Z"
        fill="currentColor" />
    <circle cx="8.53333" cy="13.5469" r="0.66" stroke="currentColor" stroke-width="0.6" />
    <circle cx="11.3067" cy="13.5469" r="0.66" stroke="currentColor" stroke-width="0.6" />
    <circle cx="11.3067" cy="16.3204" r="0.66" stroke="currentColor" stroke-width="0.6" />
    <circle cx="8.53333" cy="16.3204" r="0.66" stroke="currentColor" stroke-width="0.6" />
    <circle cx="8.53333" cy="19.0933" r="0.66" stroke="currentColor" stroke-width="0.6" />
    <circle cx="11.3067" cy="19.0933" r="0.66" stroke="currentColor" stroke-width="0.6" />
    <path
        d="M23 29.0001C20.5875 27.6795 18.5484 27.7718 17.8729 26.5567C17.1973 25.3416 15.2992 22.0002 14.4347 20.4813C14.2939 19.7109 14.3985 18.4474 15.9427 19.5568C17.149 20.9832 17.6193 21.3895 17.941 21.9178C18.2627 22.4461 13.2886 14.4059 13.2886 14.4059C12.5 13 14.1717 11.8956 15 13C16.5001 15 18.6574 18.5002 18.6574 18.5002"
        stroke="currentColor" stroke-linecap="round" />
    <path
        d="M18 16.8672C19.1716 16.1445 20.0828 16.1445 20.929 18.0499C19.3669 15.4217 22.426 14.239 23.4675 17.3271C22.9684 16.4511 22.5041 14.7647 24.6391 15.0275C25.6805 15.0275 28.6095 21.5321 28.6746 22.5834C28.7396 23.6347 28.8047 25.7372 29 26"
        stroke="currentColor" stroke-linecap="round" />
</svg>