<svg width="18" height="16" viewBox="0 0 18 16" fill="none" xmlns="http://www.w3.org/2000/svg">
<path d="M17.3333 8.37847V12.1663C17.3333 12.3673 17.2534 12.56 17.1114 12.702C16.9693 12.8441 16.7766 12.9239 16.5757 12.9239H15.8181C15.8181 13.5267 15.5787 14.1048 15.1524 14.531C14.7262 14.9572 14.1481 15.1966 13.5454 15.1966C12.9426 15.1966 12.3645 14.9572 11.9383 14.531C11.5121 14.1048 11.2727 13.5267 11.2727 12.9239H6.72722C6.72722 13.5267 6.48777 14.1048 6.06155 14.531C5.63534 14.9572 5.05726 15.1966 4.4545 15.1966C3.85173 15.1966 3.27366 14.9572 2.84744 14.531C2.42122 14.1048 2.18178 13.5267 2.18178 12.9239H1.4242C1.22328 12.9239 1.03059 12.8441 0.888515 12.702C0.746443 12.56 0.666628 12.3673 0.666628 12.1663V3.07546C0.666628 2.47269 0.906075 1.89462 1.33229 1.4684C1.75851 1.04218 2.33659 0.802734 2.93935 0.802734H9.75751C10.3603 0.802734 10.9384 1.04218 11.3646 1.4684C11.7908 1.89462 12.0302 2.47269 12.0302 3.07546V4.5906H13.5454C13.8982 4.5906 14.2462 4.67275 14.5618 4.83054C14.8774 4.98833 15.1519 5.21743 15.3636 5.49969L17.1817 7.92393C17.2039 7.95686 17.2217 7.9925 17.2348 8.02999L17.2802 8.11332C17.3137 8.19781 17.3316 8.28762 17.3333 8.37847ZM5.21207 12.9239C5.21207 12.7741 5.16764 12.6276 5.0844 12.503C5.00115 12.3784 4.88284 12.2813 4.74441 12.224C4.60598 12.1667 4.45366 12.1517 4.3067 12.1809C4.15975 12.2101 4.02476 12.2823 3.91881 12.3882C3.81286 12.4942 3.74071 12.6292 3.71148 12.7761C3.68225 12.9231 3.69725 13.0754 3.75459 13.2138C3.81193 13.3523 3.90903 13.4706 4.03361 13.5538C4.15819 13.6371 4.30466 13.6815 4.4545 13.6815C4.65542 13.6815 4.84811 13.6017 4.99018 13.4596C5.13226 13.3175 5.21207 13.1248 5.21207 12.9239ZM10.5151 3.07546C10.5151 2.87453 10.4353 2.68184 10.2932 2.53977C10.1511 2.3977 9.95843 2.31788 9.75751 2.31788H2.93935C2.73843 2.31788 2.54574 2.3977 2.40366 2.53977C2.26159 2.68184 2.18178 2.87453 2.18178 3.07546V11.4088H2.77268C2.9857 11.1744 3.24534 10.9872 3.53497 10.859C3.82459 10.7309 4.13779 10.6647 4.4545 10.6647C4.7712 10.6647 5.0844 10.7309 5.37403 10.859C5.66365 10.9872 5.9233 11.1744 6.13631 11.4088H10.5151V3.07546ZM12.0302 7.6209H15.0605L14.1514 6.40878C14.0809 6.31469 13.9894 6.23833 13.8842 6.18573C13.779 6.13313 13.663 6.10575 13.5454 6.10575H12.0302V7.6209ZM14.303 12.9239C14.303 12.7741 14.2585 12.6276 14.1753 12.503C14.092 12.3784 13.9737 12.2813 13.8353 12.224C13.6969 12.1667 13.5445 12.1517 13.3976 12.1809C13.2506 12.2101 13.1156 12.2823 13.0097 12.3882C12.9037 12.4942 12.8316 12.6292 12.8024 12.7761C12.7731 12.9231 12.7881 13.0754 12.8455 13.2138C12.9028 13.3523 12.9999 13.4706 13.1245 13.5538C13.2491 13.6371 13.3955 13.6815 13.5454 13.6815C13.7463 13.6815 13.939 13.6017 14.0811 13.4596C14.2231 13.3175 14.303 13.1248 14.303 12.9239ZM15.8181 9.13605H12.0302V11.2421C12.4773 10.8425 13.0642 10.6358 13.663 10.667C14.2619 10.6983 14.8241 10.9649 15.2272 11.4088H15.8181V9.13605Z" />
</svg>
