<svg width="24" height="20" viewBox="0 0 14 11" fill="none" xmlns="http://www.w3.org/2000/svg">
<path d="M4.33301 5.53483C5.66301 5.53483 6.66634 4.5315 6.66634 3.2015C6.66634 1.8715 5.66301 0.868164 4.33301 0.868164C3.00301 0.868164 1.99967 1.8715 1.99967 3.2015C1.99967 4.5315 3.00301 5.53483 4.33301 5.53483ZM4.99967 6.16683H3.66634C1.82834 6.16683 0.333008 7.66216 0.333008 9.50016V10.1668H0.999674H1.66634H6.99967H7.66634H8.33301V9.50016C8.33301 7.66216 6.83767 6.16683 4.99967 6.16683ZM12.529 3.02816L9.66234 5.8895L8.80101 5.02816L7.85834 5.97083L9.66234 7.7735L13.4703 3.97216L12.529 3.02816Z" fill="#DDE6F9"/>
</svg>
