<svg width="20" height="20" viewBox="0 0 20 20" fill="none" xmlns="http://www.w3.org/2000/svg">
<path d="M10.8333 15.833V12.4997H13.3333L9.99996 8.33301L6.66663 12.4997H9.16663V15.833H10.8333Z" fill="#C4F5E9"/>
<path d="M5.83329 15.8337H7.49996V14.167H5.83329C4.45496 14.167 3.33329 13.0453 3.33329 11.667C3.33329 10.497 4.33246 9.37033 5.56079 9.15449L6.04496 9.06949L6.20496 8.60449C6.79079 6.89533 8.24579 5.83366 9.99996 5.83366C12.2975 5.83366 14.1666 7.70283 14.1666 10.0003V10.8337H15C15.9191 10.8337 16.6666 11.5812 16.6666 12.5003C16.6666 13.4195 15.9191 14.167 15 14.167H12.5V15.8337H15C16.8383 15.8337 18.3333 14.3387 18.3333 12.5003C18.3333 10.9337 17.2458 9.61533 15.7866 9.26033C15.4225 6.39199 12.9666 4.16699 9.99996 4.16699C7.70329 4.16699 5.70829 5.50949 4.79746 7.62533C3.00746 8.16033 1.66663 9.85033 1.66663 11.667C1.66663 13.9645 3.53579 15.8337 5.83329 15.8337Z" fill="#C4F5E9"/>
</svg>
