<svg width="14" height="11" viewBox="0 0 14 11" fill="none" xmlns="http://www.w3.org/2000/svg">
<path d="M4.33301 5.53483C5.66301 5.53483 6.66634 4.5315 6.66634 3.2015C6.66634 1.8715 5.66301 0.868164 4.33301 0.868164C3.00301 0.868164 1.99967 1.8715 1.99967 3.2015C1.99967 4.5315 3.00301 5.53483 4.33301 5.53483ZM4.99967 6.16683H3.66634C1.82834 6.16683 0.333008 7.66216 0.333008 9.50016V10.1668H0.999674H1.66634H6.99967H7.66634H8.33301V9.50016C8.33301 7.66216 6.83767 6.16683 4.99967 6.16683ZM12.5283 3.02883L10.9997 4.5575L9.47101 3.02883L8.52834 3.9715L10.0563 5.4995L8.52767 7.02816L9.47034 7.97083L10.999 6.44216L12.5283 7.9715L13.471 7.02883L11.9423 5.50016L13.471 3.9715L12.5283 3.02883Z" fill="white"/>
</svg>
