<svg width="20" height="20" viewBox="0 0 20 20" fill="none" xmlns="http://www.w3.org/2000/svg">
<circle cx="10" cy="10" r="10" fill="#527BDD"/>
<circle cx="10.0001" cy="10.0001" r="7.68182" fill="#527BDD" stroke="#FCFDFF"/>
<path d="M10.0001 1.81824C8.1788 1.81824 6.40961 2.4259 4.97273 3.54497C3.53584 4.66404 2.51341 6.23054 2.06739 7.99633C1.62136 9.76213 1.77725 11.6263 2.51035 13.2934C3.24345 14.9606 4.51185 16.3356 6.11465 17.2005C7.71744 18.0653 9.56298 18.3707 11.3589 18.0682C13.1549 17.7658 14.7986 16.8727 16.0297 15.5305C17.2607 14.1883 18.0088 12.4738 18.1553 10.6584C18.3019 8.8431 17.8386 7.03075 16.8388 5.50847L10.0001 10.0001L10.0001 1.81824Z" fill="#FCFDFF"/>
</svg>
