<svg width="14" height="17" viewBox="0 0 14 17" fill="none" xmlns="http://www.w3.org/2000/svg">
<path d="M12.8709 4.16667C13.1859 3.85167 13.3592 3.43333 13.3592 2.98833C13.3592 2.54333 13.1859 2.125 12.8709 1.81L11.5492 0.488333C11.2342 0.173333 10.8159 0 10.3709 0C9.92587 0 9.50754 0.173333 9.19337 0.4875L0.333374 9.32V12.9992H4.01087L12.8709 4.16667ZM10.3709 1.66667L11.6934 2.9875L10.3684 4.3075L9.04671 2.98667L10.3709 1.66667ZM2.00004 11.3325V10.0117L7.86671 4.16333L9.18837 5.485L3.32254 11.3325H2.00004ZM0.333374 14.6658H13.6667V16.3325H0.333374V14.6658Z" fill="#828A9D"/>
</svg>
