<svg width="20" height="20" viewBox="0 0 20 20" fill="none" xmlns="http://www.w3.org/2000/svg">
<path d="M16.6663 3.33301H4.99967C4.08051 3.33301 3.33301 4.08051 3.33301 4.99967V9.16634H4.99967V6.66634L10.333 10.6663C10.4813 10.7772 10.6572 10.833 10.833 10.833C11.0088 10.833 11.1847 10.7772 11.333 10.6663L16.6663 6.66634V14.1663H9.99967V15.833H16.6663C17.5855 15.833 18.333 15.0855 18.333 14.1663V4.99967C18.333 4.08051 17.5855 3.33301 16.6663 3.33301ZM10.833 8.95801L5.55467 4.99967H16.1113L10.833 8.95801Z" fill="#BCBCC2"/>
<path d="M1.66699 10H7.50033V11.6667H1.66699V10ZM3.33366 12.5H8.33366V14.1667H3.33366V12.5ZM5.83366 15H9.16699V16.6667H5.83366V15Z" fill="#BCBCC2"/>
</svg>
