<svg width="17" height="18" viewBox="0 0 17 18" fill="none" xmlns="http://www.w3.org/2000/svg">
<path d="M14.8333 0.666626H6.5C5.58083 0.666626 4.83333 1.41413 4.83333 2.33329V6.98829L0.910828 10.9108C0.672495 11.1491 0.600828 11.5075 0.729995 11.8191C0.859162 12.1308 1.16333 12.3333 1.5 12.3333V13.1666V16.5C1.5 16.9608 1.87333 17.3333 2.33333 17.3333H8.99999H15.6667C16.1275 17.3333 16.5 16.9608 16.5 16.5V2.33329C16.5 1.41413 15.7525 0.666626 14.8333 0.666626ZM8.16666 15.6666H3.16666V13.1666V11.5V11.0116L5.66666 8.51163L8.16666 11.0116V11.5V14V15.6666ZM14.8333 15.6666H9.83333V14V12.3333C10.17 12.3333 10.475 12.1308 10.6033 11.8191C10.7325 11.5075 10.6608 11.1491 10.4225 10.9108L6.5 6.98829V2.33329H14.8333V15.6666Z" fill="#527BDD"/>
<path d="M8.16665 4H9.83331V5.66667H8.16665V4ZM11.5 4H13.1666V5.66667H11.5V4ZM11.5 7.35917H13.1666V9H11.5V7.35917ZM11.5 10.6667H13.1666V12.3333H11.5V10.6667ZM4.83331 11.5H6.49998V13.1667H4.83331V11.5Z" fill="#527BDD"/>
</svg>
