<svg width="16" height="16" viewBox="0 0 16 16" fill="none" xmlns="http://www.w3.org/2000/svg">
<path d="M8.66671 12.6666V9.99996H10.6667L8.00004 6.66663L5.33337 9.99996H7.33337V12.6666H8.66671Z" fill="#828A9D"/>
<path d="M4.66671 12.6667H6.00004V11.3334H4.66671C3.56404 11.3334 2.66671 10.436 2.66671 9.33338C2.66671 8.39738 3.46604 7.49604 4.44871 7.32337L4.83604 7.25538L4.96404 6.88337C5.43271 5.51604 6.59671 4.66671 8.00004 4.66671C9.83804 4.66671 11.3334 6.16204 11.3334 8.00004V8.66671H12C12.7354 8.66671 13.3334 9.26471 13.3334 10C13.3334 10.7354 12.7354 11.3334 12 11.3334H10V12.6667H12C13.4707 12.6667 14.6667 11.4707 14.6667 10C14.6667 8.74671 13.7967 7.69204 12.6294 7.40804C12.338 5.11337 10.3734 3.33337 8.00004 3.33337C6.16271 3.33337 4.56671 4.40737 3.83804 6.10004C2.40604 6.52804 1.33337 7.88004 1.33337 9.33338C1.33337 11.1714 2.82871 12.6667 4.66671 12.6667Z" fill="#828A9D"/>
</svg>
