<svg width="20" height="20" viewBox="0 0 20 20" fill="none" xmlns="http://www.w3.org/2000/svg">
<path d="M9.99984 1.66602C5.48234 1.66602 1.6665 5.48185 1.6665 9.99935C1.6665 12.6568 2.99317 15.0643 4.99984 16.6027V16.666H5.08484C6.47484 17.7035 8.17734 18.3327 9.99984 18.3327C11.8223 18.3327 13.5248 17.7035 14.9148 16.666H14.9998V16.6027C17.0065 15.0643 18.3332 12.6577 18.3332 9.99935C18.3332 5.48185 14.5173 1.66602 9.99984 1.66602ZM6.72817 15.7718C6.97567 14.651 7.97317 13.8102 9.1665 13.8102H10.8332C12.0265 13.8102 13.024 14.6518 13.2715 15.7718C12.2982 16.336 11.1798 16.666 9.99984 16.666C8.81984 16.666 7.7015 16.336 6.72817 15.7718ZM14.6748 14.7002C14.044 13.2002 12.5598 12.1435 10.8332 12.1435H9.1665C7.43984 12.1435 5.95484 13.201 5.32484 14.7002C4.10234 13.4844 3.33317 11.8127 3.33317 9.99935C3.33317 6.38518 6.38567 3.33268 9.99984 3.33268C13.614 3.33268 16.6665 6.38518 16.6665 9.99935C16.6665 11.8127 15.8973 13.4844 14.6748 14.7002Z" fill="#527BDD" stroke-width="1px"/>
<path d="M9.99984 5C8.09984 5 6.6665 6.43333 6.6665 8.33333C6.6665 10.2333 8.09984 11.6667 9.99984 11.6667C11.8998 11.6667 13.3332 10.2333 13.3332 8.33333C13.3332 6.43333 11.8998 5 9.99984 5ZM9.99984 10C9.01817 10 8.33317 9.315 8.33317 8.33333C8.33317 7.35167 9.01817 6.66667 9.99984 6.66667C10.9815 6.66667 11.6665 7.35167 11.6665 8.33333C11.6665 9.315 10.9815 10 9.99984 10Z" fill="#527BDD" stroke-width="1px"/>
</svg>
