<svg width="20" height="20" viewBox="0 0 20 20" fill="none" xmlns="http://www.w3.org/2000/svg">
<path d="M15.8334 5.83268H15.0001V1.66602H5.00008V5.83268H4.16675C2.78841 5.83268 1.66675 6.95435 1.66675 8.33268V14.166C1.66675 15.0852 2.41425 15.8327 3.33341 15.8327H5.00008V18.3327H15.0001V15.8327H16.6667C17.5859 15.8327 18.3334 15.0852 18.3334 14.166V8.33268C18.3334 6.95435 17.2117 5.83268 15.8334 5.83268ZM6.66675 3.33268H13.3334V5.83268H6.66675V3.33268ZM13.3334 16.666H6.66675V13.3327H13.3334V16.666ZM16.6667 14.166H15.0001V13.3327V11.666H5.00008V13.3327V14.166H3.33341V8.33268C3.33341 7.87352 3.70758 7.49935 4.16675 7.49935H15.8334C16.2934 7.49935 16.6667 7.87352 16.6667 8.33268V14.166Z" fill="#828A9D"/>
<path d="M11.6667 8.33398H15.0001V10.0007H11.6667V8.33398Z" fill="#828A9D"/>
</svg>
