<svg width="18" height="18" viewBox="0 0 18 18" fill="none" xmlns="http://www.w3.org/2000/svg">
<path d="M10.5417 10.5417C10.3419 10.7561 10.101 10.928 9.83341 11.0473C9.56577 11.1665 9.27686 11.2307 8.9839 11.2358C8.69095 11.241 8.39995 11.1871 8.12827 11.0774C7.8566 10.9676 7.6098 10.8043 7.40262 10.5971C7.19544 10.3899 7.0321 10.1431 6.92237 9.87147C6.81263 9.59979 6.75874 9.30879 6.76391 9.01583C6.76908 8.72288 6.8332 8.43396 6.95245 8.16633C7.07171 7.89869 7.24364 7.65781 7.458 7.45807M13.3199 13.3199C12.0767 14.2676 10.5628 14.7926 8.99984 14.8181C3.90888 14.8181 0.999756 8.9999 0.999756 8.9999C1.90441 7.31399 3.15915 5.84104 4.67979 4.67986L13.3199 13.3199ZM7.47255 3.35621C7.97316 3.23903 8.4857 3.18045 8.99984 3.18166C14.0908 3.18166 16.9999 8.9999 16.9999 8.9999C16.5584 9.82581 16.032 10.6034 15.429 11.3199L7.47255 3.35621Z" stroke="#B2B2BA" stroke-width="1.8" stroke-linecap="round" stroke-linejoin="round"/>
<path d="M1 1L17.0002 17.0002" stroke="#B2B2BA" stroke-width="1.8" stroke-linecap="round" stroke-linejoin="round"/>
</svg>
