<svg width="20" height="20" viewBox="0 0 20 20" fill="none" xmlns="http://www.w3.org/2000/svg">
<path d="M10.757 6H9.243V8.243H7V9.757H9.243V12H10.757V9.757H13V8.243H10.757V6Z" fill="#C4CCF5"/>
<path d="M15.8333 11.321V8.33268C15.8333 5.65185 14.0125 3.39352 11.5458 2.71435C11.3017 2.09935 10.705 1.66602 10 1.66602C9.295 1.66602 8.69833 2.09935 8.45417 2.71435C5.9875 3.39435 4.16667 5.65185 4.16667 8.33268V11.321L2.74417 12.7435C2.5875 12.8993 2.5 13.111 2.5 13.3327V14.9993C2.5 15.4602 2.8725 15.8327 3.33333 15.8327H16.6667C17.1275 15.8327 17.5 15.4602 17.5 14.9993V13.3327C17.5 13.111 17.4125 12.8993 17.2558 12.7435L15.8333 11.321ZM15.8333 14.166H4.16667V13.6777L5.58917 12.2552C5.74583 12.0993 5.83333 11.8877 5.83333 11.666V8.33268C5.83333 6.03518 7.7025 4.16602 10 4.16602C12.2975 4.16602 14.1667 6.03518 14.1667 8.33268V11.666C14.1667 11.8877 14.2542 12.0993 14.4108 12.2552L15.8333 13.6777V14.166ZM10 18.3327C11.0925 18.3327 12.0058 17.6377 12.3483 16.666H7.65167C7.99417 17.6377 8.9075 18.3327 10 18.3327Z" fill="#C4CCF5"/>
</svg>
