<svg width="20" height="20" viewBox="0 0 20 20" fill="none" xmlns="http://www.w3.org/2000/svg">
<path d="M1.6665 9.99935L5.83317 13.3327V10.8327H13.3332V9.16602H5.83317V6.66602L1.6665 9.99935Z" fill="#FB977F"/>
<path d="M10.8341 2.5C8.82993 2.5 6.9466 3.28083 5.53076 4.6975L6.70909 5.87583C7.81076 4.77417 9.27576 4.16667 10.8341 4.16667C12.3924 4.16667 13.8574 4.77417 14.9591 5.87583C16.0608 6.9775 16.6683 8.4425 16.6683 10.0008C16.6683 11.5592 16.0608 13.0242 14.9591 14.1258C13.8574 15.2275 12.3924 15.835 10.8341 15.835C9.27576 15.835 7.81076 15.2275 6.70909 14.1258L5.53076 15.3042C6.9466 16.7208 8.82993 17.5017 10.8341 17.5017C12.8383 17.5017 14.7216 16.7208 16.1374 15.3042C17.5541 13.8883 18.3349 12.005 18.3349 10.0008C18.3349 7.99667 17.5541 6.11333 16.1374 4.6975C14.7216 3.28083 12.8383 2.5 10.8341 2.5Z" fill="#FB977F"/>
</svg>
