<svg width="361" height="305" viewBox="0 0 361 305" fill="none" xmlns="http://www.w3.org/2000/svg">
<path d="M360.412 280.097H2.9287C2.77266 280.097 2.623 280.007 2.51266 279.846C2.40232 279.686 2.34033 279.469 2.34033 279.243C2.34033 279.016 2.40232 278.799 2.51266 278.639C2.623 278.479 2.77266 278.389 2.9287 278.389H360.412C360.568 278.389 360.718 278.479 360.828 278.639C360.938 278.799 361 279.016 361 279.243C361 279.469 360.938 279.686 360.828 279.846C360.718 280.007 360.568 280.097 360.412 280.097Z" fill="#D1D3D4"/>
<path d="M333.929 0.888184H25.8746C12.056 0.888184 0.85376 12.0904 0.85376 25.909V222.728C0.85376 236.547 12.056 247.749 25.8746 247.749H333.929C347.748 247.749 358.95 236.547 358.95 222.728V25.909C358.95 12.0904 347.748 0.888184 333.929 0.888184Z" fill="white"/>
<path d="M333.929 248.603H25.8748C19.0151 248.594 12.439 245.865 7.58852 241.014C2.73802 236.164 0.00903774 229.587 0 222.728V25.8918C-1.4933e-06 19.0279 2.72554 12.4447 7.5775 7.58958C12.4295 2.73441 19.0108 0.00452769 25.8748 0H333.929C340.793 0.00452769 347.375 2.73441 352.227 7.58958C357.079 12.4447 359.804 19.0279 359.804 25.8918V222.728C359.795 229.587 357.066 236.164 352.216 241.014C347.365 245.865 340.789 248.594 333.929 248.603ZM25.8748 1.7079C19.4637 1.71243 13.3168 4.26237 8.78517 8.79725C4.2535 13.3321 1.7079 19.4808 1.7079 25.8918V222.728C1.71694 229.135 4.26598 235.276 8.79619 239.806C13.3264 244.337 19.4681 246.886 25.8748 246.895H333.929C340.336 246.886 346.478 244.337 351.008 239.806C355.538 235.276 358.087 229.135 358.096 222.728V25.8918C358.096 19.4808 355.551 13.3321 351.019 8.79725C346.487 4.26237 340.341 1.71243 333.929 1.7079H25.8748Z" fill="#C8CCDD"/>
<path d="M357.799 202.254H2.02549C1.80017 202.254 1.58407 202.192 1.42474 202.082C1.26541 201.972 1.1759 201.822 1.1759 201.666C1.1759 201.51 1.26541 201.361 1.42474 201.25C1.58407 201.14 1.80017 201.078 2.02549 201.078H357.799C358.024 201.078 358.24 201.14 358.399 201.25C358.559 201.361 358.648 201.51 358.648 201.666C358.648 201.822 358.559 201.972 358.399 202.082C358.24 202.192 358.024 202.254 357.799 202.254Z" fill="#C8CCDD"/>
<path d="M179.962 232.087C178.093 232.091 176.264 231.539 174.708 230.503C173.153 229.466 171.939 227.991 171.222 226.265C170.505 224.538 170.317 222.638 170.681 220.804C171.045 218.97 171.945 217.286 173.267 215.964C174.588 214.642 176.273 213.742 178.107 213.378C179.94 213.015 181.841 213.203 183.567 213.92C185.294 214.637 186.769 215.85 187.805 217.406C188.842 218.962 189.393 220.79 189.39 222.66C189.385 225.159 188.39 227.554 186.623 229.321C184.856 231.088 182.461 232.083 179.962 232.087ZM179.962 215.008C178.431 215.005 176.934 215.456 175.659 216.304C174.384 217.152 173.39 218.359 172.802 219.772C172.214 221.186 172.058 222.742 172.355 224.244C172.651 225.746 173.387 227.126 174.468 228.21C175.549 229.293 176.928 230.032 178.429 230.332C179.931 230.632 181.487 230.48 182.902 229.894C184.316 229.309 185.526 228.318 186.377 227.045C187.228 225.772 187.682 224.276 187.682 222.745C187.693 221.723 187.502 220.709 187.119 219.762C186.736 218.814 186.17 217.952 185.452 217.225C184.734 216.498 183.88 215.92 182.937 215.525C181.995 215.129 180.984 214.925 179.962 214.923V215.008Z" fill="#C8CCDD"/>
<path d="M244.743 287.766H115.061C111.119 287.766 107.922 290.962 107.922 294.905V295.981C107.922 299.923 111.119 303.12 115.061 303.12H244.743C248.685 303.12 251.882 299.923 251.882 295.981V294.905C251.882 290.962 248.685 287.766 244.743 287.766Z" fill="white"/>
<path d="M244.743 304.007H115.061C112.945 304.007 110.914 303.167 109.416 301.672C107.917 300.176 107.073 298.148 107.068 296.031V294.938C107.068 292.816 107.91 290.782 109.409 289.28C110.907 287.778 112.94 286.932 115.061 286.928H244.743C246.861 286.932 248.892 287.776 250.39 289.274C251.888 290.772 252.731 292.802 252.736 294.921V296.014C252.736 298.134 251.894 300.167 250.395 301.666C248.896 303.165 246.863 304.007 244.743 304.007ZM115.061 288.636C113.395 288.636 111.796 289.298 110.617 290.477C109.439 291.655 108.776 293.254 108.776 294.921V296.014C108.776 297.681 109.439 299.279 110.617 300.458C111.796 301.637 113.395 302.299 115.061 302.299H244.743C246.407 302.299 248.003 301.639 249.181 300.464C250.359 299.289 251.023 297.695 251.028 296.031V294.938C251.028 293.271 250.366 291.672 249.187 290.494C248.008 289.315 246.41 288.653 244.743 288.653L115.061 288.636Z" fill="#C8CCDD"/>
<path d="M228.996 288.021H130.808L137.554 247.749H222.249L228.996 288.021Z" fill="white"/>
<path d="M228.996 288.875H130.809C130.684 288.879 130.56 288.854 130.447 288.8C130.334 288.747 130.236 288.667 130.16 288.568C130.08 288.475 130.022 288.365 129.99 288.247C129.957 288.129 129.951 288.005 129.972 287.885L136.803 247.612C136.836 247.413 136.937 247.232 137.091 247.101C137.244 246.969 137.439 246.896 137.64 246.895H222.335C222.537 246.896 222.732 246.969 222.885 247.101C223.038 247.232 223.14 247.413 223.172 247.612L230.004 287.885C230.021 288.005 230.013 288.128 229.981 288.246C229.949 288.363 229.892 288.473 229.816 288.568C229.72 288.688 229.593 288.781 229.448 288.835C229.304 288.889 229.148 288.903 228.996 288.875ZM131.816 287.167H227.988L221.533 248.603H138.289L131.816 287.167Z" fill="#C8CCDD"/>
<path d="M134.19 267.885L223.599 255.742L222.249 247.749H137.555L134.19 267.885Z" fill="#C8CCDD"/>
<path d="M134.19 268.739C133.959 268.739 133.738 268.646 133.575 268.483C133.484 268.386 133.416 268.27 133.377 268.142C133.339 268.015 133.331 267.88 133.353 267.749L136.769 247.612C136.801 247.413 136.903 247.232 137.056 247.101C137.21 246.969 137.404 246.896 137.606 246.895H222.301C222.503 246.896 222.697 246.969 222.851 247.101C223.004 247.232 223.106 247.413 223.138 247.612L224.487 255.605C224.522 255.833 224.467 256.066 224.333 256.254C224.264 256.345 224.177 256.421 224.077 256.477C223.977 256.533 223.867 256.567 223.753 256.579L134.344 268.722L134.19 268.739ZM138.272 248.603L135.215 266.895L222.608 254.939L221.532 248.518L138.272 248.603Z" fill="#CFD2E1"/>
<path d="M208.552 52.8085H151.269C145.487 52.8085 140.8 57.4958 140.8 63.2779V92.2269C140.8 98.009 145.487 102.696 151.269 102.696H208.552C214.335 102.696 219.022 98.009 219.022 92.2269V63.2779C219.022 57.4958 214.335 52.8085 208.552 52.8085Z" fill="#527BDD"/>
<path d="M199.448 65.1228H160.355C159.549 65.1228 158.752 64.9642 158.008 64.656C157.264 64.3479 156.588 63.8963 156.019 63.3269C155.45 62.7576 154.998 62.0817 154.69 61.3378C154.382 60.5939 154.223 59.7966 154.223 58.9914V43.4665C154.223 36.654 156.929 30.1204 161.747 25.3032C166.564 20.486 173.097 17.7797 179.91 17.7797C186.723 17.7797 193.256 20.486 198.073 25.3032C202.891 30.1204 205.597 36.654 205.597 43.4665V58.9914C205.592 60.6191 204.943 62.1786 203.79 63.328C202.637 64.4773 201.076 65.1228 199.448 65.1228ZM166.503 52.8429H193.3V43.4665C193.364 41.6668 193.065 39.8725 192.421 38.1908C191.777 36.5091 190.8 34.9745 189.549 33.6786C188.299 32.3826 186.8 31.3519 185.142 30.6479C183.485 29.9439 181.702 29.581 179.901 29.581C178.101 29.581 176.318 29.9439 174.661 30.6479C173.003 31.3519 171.504 32.3826 170.254 33.6786C169.003 34.9745 168.027 36.5091 167.382 38.1908C166.738 39.8725 166.439 41.6668 166.503 43.4665V52.8429Z" fill="#527BDD"/>
<path d="M179.911 77.4872C184.052 77.4872 187.409 74.1304 187.409 69.9895C187.409 65.8487 184.052 62.4918 179.911 62.4918C175.77 62.4918 172.413 65.8487 172.413 69.9895C172.413 74.1304 175.77 77.4872 179.911 77.4872Z" fill="white"/>
<path d="M181.994 71.4242H177.809V88.8619H181.994V71.4242Z" fill="white"/>
<path d="M300.676 176.409H59.1444C51.444 176.409 44.059 173.35 38.614 167.905C33.169 162.46 30.11 155.075 30.11 147.375C30.11 139.675 33.169 132.29 38.614 126.845C44.059 121.4 51.444 118.341 59.1444 118.341H300.676C308.377 118.341 315.762 121.4 321.207 126.845C326.652 132.29 329.711 139.675 329.711 147.375C329.711 155.075 326.652 162.46 321.207 167.905C315.762 173.35 308.377 176.409 300.676 176.409ZM59.1444 120.048C51.8969 120.048 44.9463 122.928 39.8216 128.052C34.6969 133.177 31.8179 140.128 31.8179 147.375C31.8179 154.622 34.6969 161.573 39.8216 166.698C44.9463 171.822 51.8969 174.701 59.1444 174.701H300.676C307.924 174.701 314.874 171.822 319.999 166.698C325.124 161.573 328.003 154.622 328.003 147.375C328.003 140.128 325.124 133.177 319.999 128.052C314.874 122.928 307.924 120.048 300.676 120.048H59.1444Z" fill="#C8CCDD"/>
<path d="M130.433 149.579L134.122 154.446L130.023 157.299L126.351 152.346L122.747 157.128L118.751 154.259L122.44 149.528L116.565 147.581L118.153 143.02L123.943 145.019V139.109H128.93V145.019L134.72 143.208L136.257 147.751L130.433 149.579Z" fill="#717A8F"/>
<path d="M157.144 149.579L160.833 154.446L156.734 157.299L153.045 152.346L149.459 157.128L145.462 154.259L149.134 149.528L143.276 147.581L144.864 143.02L150.637 145.019V139.109H155.641V145.019L161.414 143.208L162.968 147.751L157.144 149.579Z" fill="#717A8F"/>
<path d="M183.941 149.579L187.613 154.446L183.531 157.299L179.842 152.346L176.239 157.128L172.242 154.259L175.931 149.528L170.056 147.581L171.644 143.02L177.434 145.019V139.109H182.438V145.019L188.211 143.208L189.748 147.751L183.941 149.579Z" fill="#717A8F"/>
<path d="M210.704 149.579L214.393 154.446L210.294 157.299L206.605 152.346L203.019 157.128L199.022 154.259L202.694 149.528L196.836 147.581L198.425 143.02L204.197 145.019V139.109H209.201V145.019L214.974 143.208L216.528 147.751L210.704 149.579Z" fill="#717A8F"/>
<path d="M237.518 149.579L241.19 154.446L237.108 157.299L233.419 152.346L229.815 157.128L225.819 154.259L229.508 149.528L223.633 147.581L225.221 143.02L231.011 145.019V139.109H236.015V145.019L241.788 143.208L243.325 147.751L237.518 149.579Z" fill="#717A8F"/>
</svg>
