<svg width="16" height="16" viewBox="0 0 16 16" fill="none" xmlns="http://www.w3.org/2000/svg">
<path d="M2.28872 11.55L2.05272 13.2C2.02272 13.408 2.09272 13.6173 2.24072 13.766C2.38872 13.9147 2.59872 13.984 2.80672 13.954L4.45672 13.718C4.70672 13.6827 5.33339 12 5.33339 12C5.33339 12 5.64806 12.27 5.77672 12.3107C6.05139 12.3973 6.31872 12.128 6.40872 11.8547L6.66672 10.6733C6.66672 10.6733 7.05139 10.868 7.19072 10.8967C7.36806 10.9333 7.54006 10.824 7.66206 10.7013C7.73339 10.63 7.78939 10.542 7.82272 10.4407L8.00006 9.34C8.00006 9.34 8.45006 9.46467 8.60406 9.48267C8.77939 9.50267 8.95006 9.41334 9.07539 9.28734L9.83406 8.52934C11.1014 8.93734 12.5494 8.64267 13.5547 7.63734C14.9841 6.20734 14.9841 3.88134 13.5547 2.452C12.1247 1.02267 9.79872 1.02267 8.36939 2.452C7.36406 3.45734 7.06872 4.90467 7.47739 6.17267L2.47672 11.1727C2.37472 11.2747 2.30872 11.4067 2.28872 11.55ZM12.3361 3.67067C13.0934 4.42934 13.0934 5.65934 12.3361 6.41867L9.58806 3.67067C10.3474 2.91334 11.5774 2.91334 12.3361 3.67067Z" fill="#828A9D"/>
</svg>
