<svg width="12" height="14" viewBox="0 0 12 14" fill="none" xmlns="http://www.w3.org/2000/svg">
<path d="M9.99984 5.66732H3.99984V3.66732C3.99984 2.56465 4.89717 1.66732 5.99984 1.66732C7.1025 1.66732 7.99984 2.56465 7.99984 3.66732H9.33317C9.33317 1.82932 7.83784 0.333984 5.99984 0.333984C4.16184 0.333984 2.6665 1.82932 2.6665 3.66732V5.66732H1.99984C1.26384 5.66732 0.666504 6.26465 0.666504 7.00065V12.334C0.666504 13.07 1.26384 13.6673 1.99984 13.6673H3.99984H5.33317H6.6665H8.6665H9.99984C10.7358 13.6673 11.3332 13.07 11.3332 12.334V7.00065C11.3332 6.26465 10.7358 5.66732 9.99984 5.66732ZM4.70717 9.33332C4.8245 8.85332 5.22717 8.46532 5.7105 8.36465C6.57384 8.18332 7.33317 8.83598 7.33317 9.66732C7.33317 10.16 7.06384 10.5853 6.6665 10.816V12.334H5.33317V10.816C4.8485 10.5347 4.55384 9.96332 4.70717 9.33332Z" fill="#828A9D"/>
</svg>
