<svg width="20" height="20" viewBox="0 0 20 20" fill="none" xmlns="http://www.w3.org/2000/svg">
<path d="M8.33342 9.16581H5.91758C5.91758 9.16331 5.91758 9.16081 5.91842 9.15831C5.97258 8.89247 6.05425 8.62997 6.16091 8.37747C6.26591 8.12997 6.39508 7.89164 6.54508 7.66914C6.69342 7.44914 6.86508 7.24164 7.05341 7.05247C7.24258 6.86414 7.45008 6.69247 7.67175 6.54331C7.89342 6.39331 8.13092 6.26497 8.37842 6.15997C8.63008 6.05331 8.89258 5.97164 9.16008 5.91747C9.70842 5.80497 10.2909 5.80497 10.8417 5.91747C11.1067 5.97164 11.3701 6.05331 11.6226 6.15997C11.8692 6.26414 12.1067 6.39414 12.3309 6.54414C12.5526 6.69331 12.7592 6.86414 12.9459 7.05164L14.1259 5.87497C13.8642 5.61164 13.5726 5.37164 13.2626 5.16247C12.9517 4.95247 12.6184 4.77081 12.2726 4.62414C11.9184 4.47414 11.5492 4.35997 11.1767 4.28414C10.4076 4.12664 9.59425 4.12664 8.82758 4.28414C8.45342 4.36081 8.08425 4.47497 7.73092 4.62497C7.38175 4.77164 7.04842 4.95247 6.73842 5.16247C6.43008 5.36997 6.14008 5.60997 5.87508 5.87414C5.61008 6.13831 5.37091 6.42914 5.16425 6.73664C4.95425 7.04747 4.77258 7.38081 4.62592 7.72831C4.47591 8.08164 4.36175 8.45081 4.28591 8.82414C4.26258 8.93664 4.25008 9.05164 4.23341 9.16581H1.66675L5.00008 12.4991L8.33342 9.16581ZM11.6667 10.8325H14.0826C14.0817 10.835 14.0826 10.8375 14.0817 10.8391C14.0267 11.1091 13.9451 11.3716 13.8384 11.6208C13.7359 11.865 13.6067 12.1033 13.4559 12.3275C13.3067 12.5475 13.1351 12.7558 12.9451 12.9458C12.7576 13.1333 12.5509 13.3041 12.3292 13.4541C12.1059 13.6041 11.8684 13.7333 11.6217 13.8383C11.3692 13.945 11.1067 14.0266 10.8401 14.0808C10.2926 14.1933 9.70925 14.1933 9.15925 14.0808C8.89341 14.0266 8.63092 13.945 8.37842 13.8383C8.13092 13.7333 7.89258 13.6041 7.67008 13.4541C7.45008 13.3058 7.24258 13.1341 7.05341 12.9458L5.87508 14.1241C6.13925 14.3883 6.43008 14.6283 6.73758 14.8358C7.04842 15.0458 7.38175 15.2275 7.72925 15.3741C8.08258 15.5241 8.45175 15.6383 8.82508 15.7141C9.20925 15.7925 9.60425 15.8325 10.0001 15.8325C10.3959 15.8325 10.7909 15.7925 11.1734 15.7141C11.5476 15.6383 11.9176 15.5233 12.2709 15.3733C12.6167 15.2266 12.9501 15.0458 13.2609 14.8358C13.5709 14.6266 13.8626 14.3858 14.1234 14.1241C14.3876 13.86 14.6276 13.5691 14.8359 13.26C15.0476 12.9458 15.2292 12.6125 15.3734 12.2708C15.5217 11.9208 15.6359 11.5516 15.7134 11.1741C15.7359 11.0616 15.7492 10.9466 15.7659 10.8325H18.3334L15.0001 7.49914L11.6667 10.8325Z" fill="#828A9D"/>
</svg>
