<svg width="20" height="20" viewBox="0 0 20 20" fill="none" xmlns="http://www.w3.org/2000/svg">
<path d="M10.8333 5.83398H9.16659V9.16732H5.83325V10.834H9.16659V14.1673H10.8333V10.834H14.1666V9.16732H10.8333V5.83398Z" fill="#313976"/>
<path d="M10.0001 1.66602C5.40508 1.66602 1.66675 5.40435 1.66675 9.99935C1.66675 14.5943 5.40508 18.3327 10.0001 18.3327C14.5951 18.3327 18.3334 14.5943 18.3334 9.99935C18.3334 5.40435 14.5951 1.66602 10.0001 1.66602ZM10.0001 16.666C6.32425 16.666 3.33341 13.6752 3.33341 9.99935C3.33341 6.32352 6.32425 3.33268 10.0001 3.33268C13.6759 3.33268 16.6667 6.32352 16.6667 9.99935C16.6667 13.6752 13.6759 16.666 10.0001 16.666Z" fill="#313976"/>
</svg>
