<svg width="18" height="17" viewBox="0 0 18 17" fill="none" xmlns="http://www.w3.org/2000/svg">
<path d="M15.667 4.83366H12.3337V2.33366C12.3337 1.41449 11.5862 0.666992 10.667 0.666992H7.33366C6.41449 0.666992 5.66699 1.41449 5.66699 2.33366V6.50033H2.33366C1.41449 6.50033 0.666992 7.24783 0.666992 8.16699V15.667C0.666992 16.127 1.03949 16.5003 1.50033 16.5003H6.50033H11.5003H16.5003C16.9612 16.5003 17.3337 16.127 17.3337 15.667V6.50033C17.3337 5.58116 16.5862 4.83366 15.667 4.83366ZM2.33366 8.16699H5.66699V14.8337H2.33366V8.16699ZM7.33366 7.33366V2.33366H10.667V5.66699V14.8337H7.33366V7.33366ZM15.667 14.8337H12.3337V6.50033H15.667V14.8337Z" />
</svg>
