<svg width="18" height="18" viewBox="0 0 18 18" fill="none" xmlns="http://www.w3.org/2000/svg">
<path d="M3.99999 10.6667C2.16166 10.6667 0.666656 12.1617 0.666656 14C0.666656 15.8383 2.16166 17.3333 3.99999 17.3333C5.83249 17.3333 7.32249 15.8467 7.33166 14.0167H7.33332V12.3333H10.6667V14.0325H10.67C10.6875 15.855 12.1733 17.3333 14 17.3333C15.8383 17.3333 17.3333 15.8383 17.3333 14C17.3333 12.1617 15.8383 10.6667 14 10.6667H12.3333V7.33332H14C15.8383 7.33332 17.3333 5.83832 17.3333 3.99999C17.3333 2.16166 15.8383 0.666656 14 0.666656C12.1617 0.666656 10.6667 2.16166 10.6667 3.99999V5.66666H7.33332V3.98332H7.33166C7.32249 2.15332 5.83249 0.666656 3.99999 0.666656C2.16166 0.666656 0.666656 2.16166 0.666656 3.99999C0.666656 5.83832 2.16166 7.33332 3.99999 7.33332H5.66666V10.6667H3.99999ZM5.66666 14C5.66666 14.935 4.93416 15.6667 3.99999 15.6667C3.06582 15.6667 2.33332 14.935 2.33332 14C2.33332 13.065 3.06582 12.3333 3.99999 12.3333H5.66666V14ZM14 12.3333C14.9342 12.3333 15.6667 13.065 15.6667 14C15.6667 14.935 14.9342 15.6667 14 15.6667C13.0658 15.6667 12.3333 14.935 12.3333 14V12.3333H14ZM12.3333 3.99999C12.3333 3.06499 13.0658 2.33332 14 2.33332C14.9342 2.33332 15.6667 3.06499 15.6667 3.99999C15.6667 4.93499 14.9342 5.66666 14 5.66666H12.3333V3.99999ZM3.99999 5.66666C3.06582 5.66666 2.33332 4.93499 2.33332 3.99999C2.33332 3.06499 3.06582 2.33332 3.99999 2.33332C4.93416 2.33332 5.66666 3.06499 5.66666 3.99999V5.66666H3.99999ZM7.33332 7.33332H10.6667V10.6667H7.33332V7.33332Z"/>
</svg>
