<svg width="20" height="20" viewBox="0 0 20 20" fill="none" xmlns="http://www.w3.org/2000/svg">
<path d="M6.25008 12.084C4.93341 12.084 3.83091 12.9673 3.46925 14.1673H1.66675V15.834H3.46925C3.83091 17.034 4.93341 17.9173 6.25008 17.9173C7.56675 17.9173 8.66925 17.034 9.03091 15.834H18.3334V14.1673H9.03091C8.66925 12.9673 7.56675 12.084 6.25008 12.084ZM6.25008 16.2507C5.56091 16.2507 5.00008 15.6898 5.00008 15.0007C5.00008 14.3115 5.56091 13.7507 6.25008 13.7507C6.93925 13.7507 7.50008 14.3115 7.50008 15.0007C7.50008 15.6898 6.93925 16.2507 6.25008 16.2507ZM13.7501 7.08398C12.4334 7.08398 11.3309 7.96732 10.9692 9.16732H1.66675V10.834H10.9692C11.3309 12.034 12.4334 12.9173 13.7501 12.9173C15.0667 12.9173 16.1692 12.034 16.5309 10.834H18.3334V9.16732H16.5309C16.1692 7.96732 15.0667 7.08398 13.7501 7.08398ZM13.7501 11.2507C13.0609 11.2507 12.5001 10.6898 12.5001 10.0007C12.5001 9.31148 13.0609 8.75065 13.7501 8.75065C14.4392 8.75065 15.0001 9.31148 15.0001 10.0007C15.0001 10.6898 14.4392 11.2507 13.7501 11.2507Z" fill="#313976"/>
<path d="M10.6976 4.16732C10.3359 2.96732 9.23342 2.08398 7.91675 2.08398C6.60008 2.08398 5.49758 2.96732 5.13592 4.16732H1.66675V5.83398H5.13592C5.49758 7.03399 6.60008 7.91732 7.91675 7.91732C9.23342 7.91732 10.3359 7.03399 10.6976 5.83398H18.4376V4.16732H10.6976ZM7.91675 6.25065C7.22758 6.25065 6.66675 5.68982 6.66675 5.00065C6.66675 4.31148 7.22758 3.75065 7.91675 3.75065C8.60592 3.75065 9.16675 4.31148 9.16675 5.00065C9.16675 5.68982 8.60592 6.25065 7.91675 6.25065Z" fill="#313976"/>
</svg>
