<svg width="20" height="20" viewBox="0 0 20 20" fill="none" xmlns="http://www.w3.org/2000/svg">
<path d="M1.66666 9.16666H5.83332V10.8333H1.66666V9.16666ZM14.1667 9.16666H18.3333V10.8333H14.1667V9.16666ZM9.16666 14.1667H10.8333V18.3333H9.16666V14.1667ZM9.16666 1.66666H10.8333V5.83332H9.16666V1.66666Z" />
<path d="M3.51843 4.69699L4.69692 3.51846L7.64325 6.46469L6.46476 7.64322L3.51843 4.69699Z" />
<path d="M16.4816 15.303L15.3031 16.4815L12.3567 13.5353L13.5352 12.3568L16.4816 15.303Z" />
<path d="M6.46475 12.3568L7.64324 13.5353L4.69691 16.4815L3.51842 15.303L6.46475 12.3568Z" />
<path d="M12.3566 6.46442L15.3033 3.51855L16.4817 4.69723L13.535 7.64309L12.3566 6.46442Z" />
</svg>
