<svg width="20" height="20" viewBox="0 0 20 20" fill="none" xmlns="http://www.w3.org/2000/svg">
<path d="M9.99999 1.66669C5.48249 1.66669 1.66666 5.48252 1.66666 10C1.66666 14.5175 5.48249 18.3334 9.99999 18.3334C14.5175 18.3334 18.3333 14.5175 18.3333 10C18.3333 5.48252 14.5175 1.66669 9.99999 1.66669ZM9.99999 5.83335C11.4392 5.83335 12.5 6.89335 12.5 8.33335C12.5 9.77335 11.4392 10.8334 9.99999 10.8334C8.56166 10.8334 7.49999 9.77335 7.49999 8.33335C7.49999 6.89335 8.56166 5.83335 9.99999 5.83335ZM5.74499 13.9767C6.49249 12.8767 7.73916 12.1434 9.16666 12.1434H10.8333C12.2617 12.1434 13.5075 12.8767 14.255 13.9767C13.19 15.1167 11.6792 15.8334 9.99999 15.8334C8.32082 15.8334 6.80999 15.1167 5.74499 13.9767Z" fill="#313976"/>
</svg>
