<svg width="115" height="36" viewBox="0 0 115 36" fill="none" xmlns="http://www.w3.org/2000/svg">
<g clip-path="url(#clip0_2706_1188)">
<path d="M44.1351 11.8437C44.4376 12.2598 44.5863 12.7774 44.5863 13.3967C44.5863 14.2482 44.2739 14.9062 43.6591 15.3706C43.0393 15.8351 42.1369 16.0673 40.9519 16.0673H36.3308V6.24121H40.6841C41.7799 6.24121 42.6278 6.4686 43.2178 6.92338C43.8128 7.37815 44.1054 8.00226 44.1054 8.79571C44.1054 9.28435 44.0012 9.71494 43.788 10.0875C43.5748 10.46 43.2823 10.7503 42.9104 10.9583C43.4211 11.1373 43.8327 11.4324 44.1302 11.8485L44.1351 11.8437ZM38.0563 7.66844V10.3778H40.5007C41.1006 10.3778 41.5667 10.2616 41.889 10.0342C42.2113 9.80686 42.3749 9.4682 42.3749 9.03277C42.3749 8.59735 42.2113 8.24417 41.889 8.01678C41.5667 7.78939 41.1006 7.67328 40.5007 7.67328H38.0563V7.66844ZM42.8509 13.2129C42.8509 12.2694 42.1815 11.7953 40.8478 11.7953H38.0612V14.6304H40.8478C42.1865 14.6304 42.8509 14.1563 42.8509 13.2129Z" fill="#002F54"/>
<path d="M48.8455 15.061C48.1265 14.2966 47.7695 13.208 47.7695 11.7856V6.24121H49.495V11.7131C49.495 13.6386 50.2834 14.6062 51.8601 14.6062C53.4368 14.6062 54.2103 13.6434 54.2103 11.7131V6.24121H55.911V11.7856C55.911 13.208 55.554 14.3014 54.845 15.061C54.131 15.8254 53.1344 16.2028 51.8502 16.2028C50.566 16.2028 49.5644 15.8206 48.8504 15.061H48.8455Z" fill="#002F54"/>
<path d="M60.547 15.8831C59.8777 15.6653 59.3521 15.3847 58.9604 15.0267L59.5603 13.6092C59.9421 13.9285 60.4082 14.1849 60.9586 14.3881C61.5139 14.5913 62.0692 14.6881 62.6245 14.6881C63.3137 14.6881 63.8294 14.5719 64.1715 14.3349C64.5136 14.1026 64.6822 13.793 64.6822 13.406C64.6822 13.1254 64.588 12.8931 64.3946 12.7093C64.2013 12.5254 63.9633 12.3851 63.6707 12.2835C63.3782 12.1819 62.9815 12.0658 62.4758 11.9304C61.7668 11.7513 61.1966 11.5772 60.7553 11.3982C60.3189 11.2192 59.9421 10.9434 59.6248 10.5612C59.3124 10.1838 59.1537 9.67098 59.1537 9.02268C59.1537 8.48082 59.2926 7.98734 59.5702 7.54224C59.8479 7.09714 60.2694 6.74396 60.8296 6.4827C61.3899 6.22145 62.0791 6.09082 62.8923 6.09082C63.4575 6.09082 64.0178 6.16339 64.5632 6.31337C65.1136 6.46335 65.5846 6.67623 65.9863 6.95683L65.4408 8.37438C65.0343 8.1228 64.6079 7.92928 64.1666 7.79866C63.7253 7.66803 63.2939 7.60029 62.8774 7.60029C62.1981 7.60029 61.6874 7.72125 61.3552 7.96315C61.023 8.20505 60.8594 8.5292 60.8594 8.93076C60.8594 9.21137 60.9536 9.43876 61.147 9.61777C61.3354 9.79677 61.5783 9.93708 61.8709 10.0387C62.1634 10.1403 62.5601 10.2564 63.0658 10.3919C63.755 10.5612 64.3252 10.7354 64.7665 10.9192C65.2078 11.103 65.5896 11.3788 65.902 11.7562C66.2143 12.1287 66.373 12.6367 66.373 13.2705C66.373 13.8124 66.2342 14.3058 65.9565 14.7461C65.6788 15.1864 65.2524 15.5347 64.6872 15.8008C64.1219 16.0621 63.4278 16.1927 62.6146 16.1927C61.8957 16.1927 61.2065 16.0863 60.5371 15.8685L60.547 15.8831Z" fill="#002F54"/>
<path d="M69.5116 6.23633H71.2371V16.0624H69.5116V6.23633Z" fill="#002F54"/>
<path d="M83.4245 6.23633V16.0624H82.0015L76.8746 9.41009V16.0624H75.1591V6.23633H76.5821L81.709 12.8887V6.23633H83.4245Z" fill="#002F54"/>
<path d="M94.3129 14.5336V16.0624H87.3416V6.23633H94.1245V7.76515H89.067V10.3196H93.5543V11.8194H89.067V14.5288H94.3129V14.5336Z" fill="#002F54"/>
<path d="M98.458 15.8831C97.7887 15.6653 97.2631 15.3847 96.8714 15.0267L97.4713 13.6092C97.8531 13.9285 98.3192 14.1849 98.8696 14.3881C99.4249 14.5913 99.9802 14.6881 100.536 14.6881C101.225 14.6881 101.74 14.5719 102.083 14.3349C102.425 14.1026 102.593 13.793 102.593 13.406C102.593 13.1254 102.499 12.8931 102.306 12.7093C102.117 12.5254 101.874 12.3851 101.582 12.2835C101.289 12.1819 100.893 12.0658 100.387 11.9304C99.6778 11.7513 99.1076 11.5772 98.6663 11.3982C98.2299 11.2192 97.8531 10.9434 97.5358 10.5612C97.2234 10.1838 97.0647 9.67098 97.0647 9.02268C97.0647 8.48082 97.2036 7.98734 97.4812 7.54224C97.7589 7.09714 98.1804 6.74396 98.7406 6.4827C99.3009 6.22145 99.9901 6.09082 100.803 6.09082C101.369 6.09082 101.929 6.16339 102.474 6.31337C103.025 6.46335 103.496 6.67623 103.897 6.95683L103.352 8.37438C102.945 8.1228 102.519 7.92928 102.078 7.79866C101.636 7.66803 101.205 7.60029 100.788 7.60029C100.109 7.60029 99.5984 7.72125 99.2662 7.96315C98.934 8.20505 98.7704 8.5292 98.7704 8.93076C98.7704 9.21137 98.8646 9.43876 99.058 9.61777C99.2513 9.79677 99.4893 9.93708 99.7819 10.0387C100.074 10.1403 100.471 10.2564 100.977 10.3919C101.666 10.5612 102.236 10.7354 102.678 10.9192C103.119 11.103 103.501 11.3788 103.813 11.7562C104.125 12.1287 104.284 12.6367 104.284 13.2705C104.284 13.8124 104.145 14.3058 103.868 14.7461C103.59 15.1864 103.163 15.5347 102.598 15.8008C102.033 16.0621 101.339 16.1927 100.526 16.1927C99.8067 16.1927 99.1175 16.0863 98.4481 15.8685L98.458 15.8831Z" fill="#002F54"/>
<path d="M108.226 15.8831C107.556 15.6653 107.031 15.3847 106.639 15.0267L107.239 13.6092C107.621 13.9285 108.087 14.1849 108.637 14.3881C109.193 14.5913 109.748 14.6881 110.303 14.6881C110.993 14.6881 111.508 14.5719 111.85 14.3349C112.192 14.1026 112.361 13.793 112.361 13.406C112.361 13.1254 112.267 12.8931 112.073 12.7093C111.885 12.5254 111.642 12.3851 111.35 12.2835C111.057 12.1819 110.66 12.0658 110.155 11.9304C109.446 11.7513 108.875 11.5772 108.434 11.3982C107.998 11.2192 107.621 10.9434 107.304 10.5612C106.991 10.1838 106.833 9.67098 106.833 9.02268C106.833 8.48082 106.971 7.98734 107.249 7.54224C107.527 7.09714 107.948 6.74396 108.508 6.4827C109.069 6.22145 109.758 6.09082 110.571 6.09082C111.136 6.09082 111.697 6.16339 112.242 6.31337C112.792 6.46335 113.263 6.67623 113.665 6.95683L113.12 8.37438C112.713 8.1228 112.287 7.92928 111.845 7.79866C111.404 7.66803 110.973 7.60029 110.556 7.60029C109.877 7.60029 109.366 7.72125 109.034 7.96315C108.702 8.20505 108.538 8.5292 108.538 8.93076C108.538 9.21137 108.632 9.43876 108.826 9.61777C109.019 9.79677 109.257 9.93708 109.55 10.0387C109.842 10.1403 110.239 10.2564 110.745 10.3919C111.434 10.5612 112.004 10.7354 112.445 10.9192C112.887 11.103 113.268 11.3788 113.581 11.7562C113.893 12.1287 114.052 12.6367 114.052 13.2705C114.052 13.8124 113.913 14.3058 113.635 14.7461C113.358 15.1864 112.931 15.5347 112.366 15.8008C111.801 16.0621 111.107 16.1927 110.293 16.1927C109.574 16.1927 108.885 16.0863 108.216 15.8685L108.226 15.8831Z" fill="#002F54"/>
<path d="M42.4096 30.7118L40.5106 27.8332C40.4313 27.8429 40.3123 27.8477 40.1536 27.8477H38.0563V30.7118H36.3308V20.8857H40.1536C40.9569 20.8857 41.6609 21.026 42.2609 21.3067C42.8559 21.5873 43.317 21.9888 43.6343 22.5162C43.9517 23.0387 44.1103 23.6628 44.1103 24.3837C44.1103 25.1045 43.9417 25.7577 43.5996 26.2947C43.2575 26.8269 42.7716 27.2236 42.132 27.4897L44.269 30.7167H42.4096V30.7118ZM41.7849 22.9371C41.3932 22.5984 40.823 22.4339 40.0743 22.4339H38.0563V26.3479H40.0743C40.8279 26.3479 41.3981 26.1786 41.7849 25.8351C42.1716 25.4916 42.37 25.0078 42.37 24.3837C42.37 23.7596 42.1766 23.2757 41.7849 22.9371Z" fill="#002F54"/>
<path d="M54.4235 29.1781V30.707H47.4522V20.8809H54.2351V22.4097H49.1777V24.9642H53.6649V26.464H49.1777V29.1733H54.4235V29.1781Z" fill="#002F54"/>
<path d="M64.2905 28.438H59.6446L58.7273 30.7118H56.9473L61.1321 20.8857H62.8328L67.0275 30.7118H65.2227L64.2905 28.438ZM63.7203 27.0059L61.9701 22.7097L60.2297 27.0059H63.7203Z" fill="#002F54"/>
<path d="M69.6256 20.8857H73.6865C74.6781 20.8857 75.5607 21.0889 76.3292 21.4953C77.0978 21.9017 77.6977 22.4774 78.1241 23.2225C78.5505 23.9675 78.7638 24.8239 78.7638 25.7963C78.7638 26.7688 78.5505 27.63 78.1241 28.3702C77.6977 29.1152 77.1027 29.691 76.3292 30.0974C75.5557 30.5038 74.6781 30.707 73.6865 30.707H69.6256V20.8809V20.8857ZM73.6071 29.1685C74.2864 29.1685 74.8864 29.033 75.407 28.7524C75.9227 28.4766 76.3243 28.0847 76.6019 27.5719C76.8796 27.0639 77.0184 26.4688 77.0184 25.7963C77.0184 25.1238 76.8796 24.5288 76.6019 24.0208C76.3243 23.5128 75.9227 23.116 75.407 22.8403C74.8913 22.5645 74.2914 22.4242 73.6071 22.4242H71.3511V29.1636H73.6071V29.1685Z" fill="#002F54"/>
<path d="M85.6211 27.243V30.7118H83.8956V27.272L80.2463 20.8857H82.0908L84.8129 25.6706L87.5597 20.8857H89.2604L85.6211 27.243Z" fill="#002F54"/>
<path d="M26.1019 20.3392C25.5267 19.8215 24.9466 19.42 24.3714 19.1297C23.7318 18.8104 22.8591 18.4669 21.7534 18.104V18.0121C23.0476 17.6009 23.9351 17.267 24.421 17.0058C24.9664 16.73 25.5267 16.343 26.1068 15.8398C28.1199 14.1658 29.1264 11.95 29.1264 9.19715C29.1264 7.96345 28.8785 6.75393 28.3777 5.56861C27.8967 4.44134 27.1828 3.4447 26.2506 2.57869C25.2193 1.62075 24.0888 0.94826 22.8591 0.570891C21.6245 0.188684 19.9486 0 17.8265 0H2.54506C1.44928 0 0.561751 0.866013 0.561751 1.93522V13.3821L9.79407 4.37361C10.0965 4.07848 10.5924 4.07848 10.8998 4.37361C11.2022 4.66873 11.2022 5.15253 10.8998 5.45249L0.561751 15.5398V18.8442L16.1258 3.65757C16.4282 3.36245 16.9241 3.36245 17.2315 3.65757C17.5339 3.95269 17.5339 4.4365 17.2315 4.73646L0.551834 20.9923V24.3306L15.1986 10.039C15.501 9.74385 15.9969 9.74385 16.3043 10.039C16.6067 10.3341 16.6067 10.8179 16.3043 11.1179L0.551834 26.4884V29.8266L20.5635 10.3002C20.8659 10.0051 21.3617 10.0051 21.6691 10.3002C21.9716 10.5954 21.9716 11.0792 21.6691 11.3791L0.551834 31.9747V34.0648C0.551834 35.134 1.43937 36 2.53515 36H20.0627C21.327 36 22.5021 35.7726 23.5979 35.313C24.659 34.9018 25.6358 34.2728 26.5233 33.4165C27.3811 32.6085 28.0505 31.6748 28.5364 30.6104C29.0173 29.5751 29.2603 28.4575 29.2603 27.2528C29.2603 24.4661 28.2091 22.1631 26.1019 20.3344" fill="#002F54"/>
<path d="M20.5733 10.2857C14.0879 16.6138 7.26033 23.2807 0.784813 29.5944C0.641023 29.7347 0.556732 29.9282 0.556732 30.1314V31.9698C7.61236 25.2449 14.6135 18.104 21.6691 11.3597C21.9765 11.0646 21.9815 10.5808 21.6691 10.2857C21.3666 9.99054 20.8758 9.9857 20.5733 10.2857Z" fill="#00AEEF"/>
<path d="M15.2035 10.0289C9.00068 16.0813 7.13637 17.9053 0.784813 24.098C0.641023 24.2383 0.556732 24.4367 0.556732 24.635V26.4783C7.60741 19.7582 9.5213 17.586 16.2993 11.103C16.6067 10.8078 16.6116 10.324 16.2993 10.0241C15.9968 9.72895 15.5059 9.72895 15.2035 10.0241V10.0289Z" fill="#00AEEF"/>
</g>
<defs>
<clipPath id="clip0_2706_1188">
<rect width="113.5" height="36" fill="white" transform="translate(0.551834)"/>
</clipPath>
</defs>
</svg>
