<svg width="24" height="24" viewBox="0 0 20 20" fill="white" xmlns="http://www.w3.org/2000/svg">
<path d="M9.99999 1.66666C5.40499 1.66666 1.66666 5.40499 1.66666 9.99999C1.66666 14.595 5.40499 18.3333 9.99999 18.3333C14.595 18.3333 18.3333 14.595 18.3333 9.99999C18.3333 5.40499 14.595 1.66666 9.99999 1.66666ZM3.33332 9.99999C3.33332 8.46166 3.86166 7.04832 4.73999 5.91916L14.0808 15.26C12.9525 16.1383 11.5383 16.6667 9.99999 16.6667C6.32416 16.6667 3.33332 13.6758 3.33332 9.99999ZM15.26 14.0808L5.91916 4.73999C7.04832 3.86166 8.46166 3.33332 9.99999 3.33332C13.6758 3.33332 16.6667 6.32416 16.6667 9.99999C16.6667 11.5383 16.1375 12.9517 15.26 14.0808Z" fill="#FB977F"/>
</svg>
