<svg width="20" height="20" viewBox="0 0 20 20" fill="none" xmlns="http://www.w3.org/2000/svg">
<path d="M16.6666 3.33398H4.99992C4.08075 3.33398 3.33325 4.08148 3.33325 5.00065V9.16732H4.99992V6.66732L10.3333 10.6673C10.4816 10.7782 10.6574 10.834 10.8333 10.834C11.0091 10.834 11.1849 10.7782 11.3333 10.6673L16.6666 6.66732V14.1673H9.99992V15.834H16.6666C17.5858 15.834 18.3333 15.0865 18.3333 14.1673V5.00065C18.3333 4.08148 17.5858 3.33398 16.6666 3.33398ZM10.8333 8.95898L5.55492 5.00065H16.1116L10.8333 8.95898Z" fill="#828A9D"/>
<path d="M1.66675 10H7.50008V11.6667H1.66675V10ZM3.33341 12.5H8.33341V14.1667H3.33341V12.5ZM5.83341 15H9.16675V16.6667H5.83341V15Z" fill="#828A9D"/>
</svg>
