<svg width="16" height="12" viewBox="0 0 16 12" fill="none" xmlns="http://www.w3.org/2000/svg">
<path d="M13.25 3H11.75V5.25H9.5V6.75H11.75V9H13.25V6.75H15.5V5.25H13.25V3ZM2 3C2 4.71 3.29 6 5 6C6.71 6 8 4.71 8 3C8 1.29 6.71 0 5 0C3.29 0 2 1.29 2 3ZM6.5 3C6.5 3.8835 5.8835 4.5 5 4.5C4.1165 4.5 3.5 3.8835 3.5 3C3.5 2.1165 4.1165 1.5 5 1.5C5.8835 1.5 6.5 2.1165 6.5 3ZM2 10.5C2 9.2595 3.0095 8.25 4.25 8.25H5.75C6.9905 8.25 8 9.2595 8 10.5V11.25H9.5V10.5C9.5 8.43225 7.81775 6.75 5.75 6.75H4.25C2.18225 6.75 0.5 8.43225 0.5 10.5V11.25H2V10.5Z" fill="#B2B2BA"/>
</svg>
