<svg width="16" height="16" viewBox="0 0 16 16" fill="none" xmlns="http://www.w3.org/2000/svg">
<path d="M2.66671 14.6673H10.6667V13.334H2.66671V5.33398H1.33337V13.334C1.33337 14.0693 1.93137 14.6673 2.66671 14.6673Z" fill="#DDE6F9"/>
<path d="M13.3333 1.33398H5.33333C4.598 1.33398 4 1.93198 4 2.66732V10.6673C4 11.4027 4.598 12.0007 5.33333 12.0007H13.3333C14.0687 12.0007 14.6667 11.4027 14.6667 10.6673V2.66732C14.6667 1.93198 14.0687 1.33398 13.3333 1.33398ZM12 7.33398H10V9.33398H8.66667V7.33398H6.66667V6.00065H8.66667V4.00065H10V6.00065H12V7.33398Z" fill="#DDE6F9"/>
</svg>
