<svg width="16" height="16" viewBox="0 0 16 16" fill="none" xmlns="http://www.w3.org/2000/svg">
<path d="M13.3333 1.33331H5.33333C4.598 1.33331 4 1.93131 4 2.66665V10.6666C4 11.402 4.598 12 5.33333 12H13.3333C14.0687 12 14.6667 11.402 14.6667 10.6666V2.66665C14.6667 1.93131 14.0687 1.33331 13.3333 1.33331ZM5.33333 10.6666V2.66665H13.3333L13.3347 10.6666H5.33333Z" fill="#828A9D"/>
<path d="M2.66668 5.33333H1.33334V13.3333C1.33334 14.0687 1.93134 14.6667 2.66668 14.6667H10.6667V13.3333H2.66668V5.33333ZM10 4H8.66668V6H6.66668V7.33333H8.66668V9.33333H10V7.33333H12V6H10V4Z" fill="#828A9D"/>
</svg>
