<svg width="16" height="16" viewBox="0 0 16 16" fill="none" xmlns="http://www.w3.org/2000/svg">
<path d="M2.66665 14.6668H10.6666V13.3335H2.66665V5.3335H1.33331V13.3335C1.33331 14.0688 1.93131 14.6668 2.66665 14.6668Z" fill="#DDE6F9"/>
<path d="M13.3333 1.3335H5.33333C4.598 1.3335 4 1.9315 4 2.66683V10.6668C4 11.4022 4.598 12.0002 5.33333 12.0002H13.3333C14.0687 12.0002 14.6667 11.4022 14.6667 10.6668V2.66683C14.6667 1.9315 14.0687 1.3335 13.3333 1.3335ZM12 7.3335H10V9.3335H8.66667V7.3335H6.66667V6.00016H8.66667V4.00016H10V6.00016H12V7.3335Z" fill="#DDE6F9"/>
</svg>
