<svg width="20" height="20" viewBox="0 0 20 20" fill="none" xmlns="http://www.w3.org/2000/svg">
<path d="M9.86437 4.61718C10.1019 4.85473 10.1019 5.24142 9.86437 5.47897L4.49478 10.8486C3.93407 11.4093 3.59985 12.1854 3.58051 12.9782C3.56118 13.7654 3.89816 14.6051 4.45887 15.1658L4.83452 15.5414C5.3759 16.0828 6.1714 16.3866 7.02766 16.3756C7.87563 16.3673 8.67113 16.0524 9.21251 15.511L16.1399 8.5836C16.5515 8.17205 16.7669 7.61409 16.7531 7.01471C16.7366 6.41809 16.4935 5.85462 16.0709 5.43201C15.6538 5.01493 15.1014 4.78291 14.5241 4.78015C13.944 4.78015 13.3916 5.00664 12.9773 5.42096L6.50838 11.8899C6.03605 12.3622 5.99462 13.1549 6.41999 13.5803C6.79564 13.956 7.55523 14.0029 8.08832 13.4698L11.7785 9.77961C12.0161 9.54207 12.4028 9.54207 12.6403 9.77961C12.8779 10.0172 12.8779 10.4039 12.6403 10.6414L8.9501 14.3316C7.96955 15.3122 6.52495 15.3481 5.58859 14.4117C5.13283 13.956 4.88148 13.3676 4.887 12.7544C4.88977 12.1274 5.16046 11.5142 5.64659 11.0281L12.1155 4.55918C12.7619 3.91284 13.6209 3.55652 14.5324 3.56204C15.4439 3.56204 16.3001 3.92112 16.9492 4.57022C17.5984 5.21932 17.9574 6.07559 17.963 6.99261C17.9685 7.90964 17.6177 8.76867 16.9686 9.41777L10.0411 16.3452C9.24841 17.1379 8.10489 17.6075 6.98622 17.5992C5.83994 17.5909 4.78204 17.1573 4.00312 16.3784L3.62747 16.0027C2.86512 15.2404 2.42318 14.1521 2.41765 13.0196C2.41489 12.4589 2.51433 11.9175 2.7132 11.4037C2.92313 10.8679 3.23249 10.3928 3.63023 9.99506L9.00535 4.61994C9.24013 4.37964 9.62683 4.37964 9.86437 4.61718Z" fill="#527BDD"/>
</svg>
