<svg width="20" height="20" viewBox="0 0 20 20" fill="none" xmlns="http://www.w3.org/2000/svg">
<path d="M8.09587 9.99935C9.05503 9.99935 9.76253 9.29185 9.76253 8.33268C9.76253 7.37352 9.05503 6.66602 8.09587 6.66602C7.1367 6.66602 6.4292 7.37352 6.4292 8.33268C6.4292 9.29185 7.13587 9.99935 8.09587 9.99935Z" fill="#828A9D"/>
<path d="M16.6667 3.33398H3.33341C2.41425 3.33398 1.66675 4.03482 1.66675 4.89648V15.1048C1.66675 15.9665 2.41425 16.6673 3.33341 16.6673H16.6667C17.5859 16.6673 18.3334 15.9665 18.3334 15.1048V4.89648C18.3334 4.03482 17.5859 3.33398 16.6667 3.33398ZM16.6667 15.0007L3.33341 14.9915V5.00065L16.6667 5.00982V15.0007Z" fill="#828A9D"/>
<path d="M11.6667 7.5H15V9.16667H11.6667V7.5ZM12.5 10.8333H15V12.5H12.5V10.8333ZM11.1917 12.9467C11.1917 11.8017 9.795 10.625 8.09583 10.625C6.39667 10.625 5 11.8017 5 12.9467V13.3333H11.1917V12.9467Z" fill="#828A9D"/>
</svg>
