<svg width="20" height="20" viewBox="0 0 20 20" fill="none" xmlns="http://www.w3.org/2000/svg">
<path d="M10.0001 13.3327C11.8384 13.3327 13.3334 11.8377 13.3334 9.99935C13.3334 8.16102 11.8384 6.66602 10.0001 6.66602C8.16175 6.66602 6.66675 8.16102 6.66675 9.99935C6.66675 11.8377 8.16175 13.3327 10.0001 13.3327ZM10.0001 8.33268C10.9034 8.33268 11.6667 9.09602 11.6667 9.99935C11.6667 10.9027 10.9034 11.666 10.0001 11.666C9.09675 11.666 8.33341 10.9027 8.33341 9.99935C8.33341 9.09602 9.09675 8.33268 10.0001 8.33268Z" fill="#828A9D"/>
<path d="M2.37086 13.446L3.20419 14.8877C3.64669 15.6518 4.71169 15.9385 5.47919 15.496L5.92003 15.241C6.40503 15.6219 6.93753 15.9344 7.50003 16.1677V16.666C7.50003 17.5852 8.24753 18.3327 9.16669 18.3327H10.8334C11.7525 18.3327 12.5 17.5852 12.5 16.666V16.1677C13.0625 15.9344 13.595 15.6219 14.08 15.2418L14.5209 15.4969C15.29 15.9385 16.3525 15.6535 16.7967 14.8877L17.6292 13.4468C18.0892 12.651 17.8159 11.6293 17.02 11.1702L16.5992 10.9268C16.6442 10.6177 16.6667 10.3085 16.6667 9.99935C16.6667 9.69018 16.6442 9.38018 16.5992 9.07352L17.02 8.83018C17.8159 8.37018 18.0892 7.34935 17.6292 6.55352L16.7967 5.11268C16.3542 4.34602 15.29 4.05852 14.5209 4.50268L14.08 4.75768C13.595 4.37685 13.0625 4.06435 12.5 3.83102V3.33268C12.5 2.41352 11.7525 1.66602 10.8334 1.66602H9.16669C8.24753 1.66602 7.50003 2.41352 7.50003 3.33268V3.83102C6.93753 4.06435 6.40503 4.37685 5.92003 4.75685L5.47919 4.50185C4.70919 4.05935 3.64586 4.34602 3.20336 5.11185L2.37086 6.55268C1.91086 7.34852 2.18419 8.37018 2.98003 8.82935L3.40086 9.07268C3.35586 9.38018 3.33336 9.69018 3.33336 9.99935C3.33336 10.3085 3.35586 10.6177 3.40086 10.9252L2.98003 11.1685C2.18419 11.6285 1.91086 12.6502 2.37086 13.446ZM5.14253 11.1477C5.04836 10.7702 5.00003 10.3835 5.00003 9.99935C5.00003 9.61435 5.04836 9.22768 5.14169 8.85102C5.23169 8.49018 5.07253 8.11352 4.75003 7.92768L3.81419 7.38602L4.64586 5.94518L5.60003 6.49685C5.92003 6.68102 6.32253 6.63435 6.59003 6.37852C7.15919 5.83935 7.84586 5.43602 8.57669 5.21268C8.92753 5.10602 9.16669 4.78185 9.16669 4.41602V3.33268H10.8334V4.41602C10.8334 4.78185 11.0725 5.10602 11.4234 5.21268C12.1542 5.43685 12.8409 5.83935 13.41 6.37852C13.6775 6.63435 14.0817 6.68018 14.4 6.49685L15.3534 5.94602L16.1867 7.38685L15.25 7.92768C14.9275 8.11435 14.7684 8.49102 14.8584 8.85102C14.9517 9.22768 15 9.61435 15 9.99935C15 10.3835 14.9517 10.7702 14.8575 11.1477C14.7684 11.5085 14.9275 11.8852 15.25 12.071L16.1859 12.6118L15.3542 14.0527L14.4 13.5018C14.0809 13.3177 13.6775 13.3635 13.41 13.6202C12.8409 14.1593 12.1542 14.5627 11.4234 14.786C11.0725 14.8927 10.8334 15.2169 10.8334 15.5827L10.835 16.666H9.16669V15.5827C9.16669 15.2169 8.92753 14.8927 8.57669 14.786C7.84586 14.5618 7.15919 14.1593 6.59003 13.6202C6.43169 13.4685 6.22503 13.391 6.01669 13.391C5.87336 13.391 5.73003 13.4277 5.60003 13.5027L4.64669 14.0543L3.81336 12.6135L4.75003 12.071C5.07253 11.8852 5.23169 11.5085 5.14253 11.1477Z" fill="#828A9D"/>
</svg>
