<svg width="183" height="183" viewBox="0 0 183 183" fill="none" xmlns="http://www.w3.org/2000/svg">
<path d="M83.78 94.24C83.18 94.24 82.67 94.04 82.25 93.64C81.85 93.22 81.65 92.71 81.65 92.11C81.65 91.53 81.85 91.04 82.25 90.64C82.67 90.22 83.18 90.01 83.78 90.01C84.34 90.01 84.83 90.22 85.25 90.64C85.67 91.04 85.88 91.53 85.88 92.11C85.88 92.71 85.67 93.22 85.25 93.64C84.85 94.04 84.36 94.24 83.78 94.24ZM91.28 94.24C90.68 94.24 90.17 94.04 89.75 93.64C89.35 93.22 89.15 92.71 89.15 92.11C89.15 91.53 89.35 91.04 89.75 90.64C90.17 90.22 90.68 90.01 91.28 90.01C91.84 90.01 92.33 90.22 92.75 90.64C93.17 91.04 93.38 91.53 93.38 92.11C93.38 92.71 93.17 93.22 92.75 93.64C92.35 94.04 91.86 94.24 91.28 94.24ZM98.78 94.24C98.18 94.24 97.67 94.04 97.25 93.64C96.85 93.22 96.65 92.71 96.65 92.11C96.65 91.53 96.85 91.04 97.25 90.64C97.67 90.22 98.18 90.01 98.78 90.01C99.34 90.01 99.83 90.22 100.25 90.64C100.67 91.04 100.88 91.53 100.88 92.11C100.88 92.71 100.67 93.22 100.25 93.64C99.85 94.04 99.36 94.24 98.78 94.24Z" fill="#A0A6B8"/>
<circle cx="91.5" cy="91.5" r="75.5" stroke="#F0F1F7" stroke-width="32"/>
</svg>
