<svg width="20" height="18" viewBox="0 0 20 18" fill="none" xmlns="http://www.w3.org/2000/svg">
<path d="M9.001 7H11.001V12H9.001V7ZM9 13H11V15H9V13Z" fill="#F181AB"/>
<path d="M11.7679 1.20067C11.4199 0.545672 10.7419 0.138672 9.99992 0.138672C9.25792 0.138672 8.57992 0.545672 8.23192 1.20167L0.893917 15.0647C0.562917 15.6907 0.582917 16.4257 0.947917 17.0327C1.31292 17.6387 1.95292 18.0007 2.66092 18.0007H17.3389C18.0469 18.0007 18.6879 17.6387 19.0529 17.0327C19.4169 16.4267 19.4379 15.6907 19.1069 15.0647L11.7679 1.20067ZM2.66092 16.0007L9.99992 2.13767L17.3439 16.0007H2.66092Z" fill="#F181AB"/>
</svg>
