<svg width="20" height="20" viewBox="0 0 20 20" fill="none" xmlns="http://www.w3.org/2000/svg">
<path d="M15.8333 1.66602H7.5C6.58083 1.66602 5.83333 2.41352 5.83333 3.33268V7.98768L1.91083 11.9102C1.67249 12.1485 1.60083 12.5069 1.72999 12.8185C1.85916 13.1302 2.16333 13.3327 2.5 13.3327V14.166V17.4993C2.5 17.9602 2.87333 18.3327 3.33333 18.3327H10H16.6667C17.1275 18.3327 17.5 17.9602 17.5 17.4993V3.33268C17.5 2.41352 16.7525 1.66602 15.8333 1.66602ZM9.16666 16.666H4.16666V14.166V12.4993V12.011L6.66666 9.51102L9.16666 12.011V12.4993V14.9993V16.666ZM15.8333 16.666H10.8333V14.9993V13.3327C11.17 13.3327 11.475 13.1302 11.6033 12.8185C11.7325 12.5069 11.6608 12.1485 11.4225 11.9102L7.5 7.98768V3.33268H15.8333V16.666Z" fill="#828A9D"/>
<path d="M9.16659 5H10.8333V6.66667H9.16659V5ZM12.4999 5H14.1666V6.66667H12.4999V5ZM12.4999 8.35917H14.1666V10H12.4999V8.35917ZM12.4999 11.6667H14.1666V13.3333H12.4999V11.6667ZM5.83325 12.5H7.49992V14.1667H5.83325V12.5Z" fill="#828A9D"/>
</svg>
