<svg width="16" height="16" viewBox="0 0 16 16" fill="none" xmlns="http://www.w3.org/2000/svg">
<path d="M12.0183 8.73183C11.7087 8.42229 11.2084 8.42229 10.8988 8.73183L9.63693 9.99375C9.05189 9.81958 7.96018 9.42375 7.26827 8.73183C6.57635 8.03991 6.18052 6.9482 6.00635 6.36316L7.26827 5.10125C7.57781 4.79171 7.57781 4.29137 7.26827 3.98183L4.1016 0.815164C3.79206 0.505622 3.29172 0.505622 2.98218 0.815164L0.835182 2.96216C0.534349 3.263 0.364932 3.67625 0.371265 4.09821C0.389474 5.22554 0.687932 9.14112 3.77385 12.227C6.85977 15.313 10.7753 15.6106 11.9035 15.6296C11.9074 15.6296 11.9217 15.6296 11.9256 15.6296C12.3436 15.6296 12.7387 15.465 13.0379 15.1657L15.1849 13.0187C15.4945 12.7092 15.4945 12.2088 15.1849 11.8993L12.0183 8.73183ZM11.9177 14.0455C10.9297 14.0289 7.54931 13.7637 4.89327 11.1068C2.22852 8.44208 1.97043 5.04979 1.9546 4.08158L3.54189 2.49429L5.58914 4.54154L4.56552 5.56516C4.37631 5.75358 4.29556 6.02591 4.35018 6.28716C4.36918 6.37821 4.83389 8.53708 6.14806 9.85125C7.46222 11.1654 9.6211 11.6301 9.71214 11.6491C9.97577 11.7053 10.2457 11.6238 10.4341 11.4346L11.4586 10.411L13.5058 12.4582L11.9177 14.0455Z" fill="#BCBCC2"/>
</svg>
