<svg width="19" height="19" viewBox="0 0 19 19" fill="none" xmlns="http://www.w3.org/2000/svg">
<path d="M14.018 9.73281C13.7085 9.42327 13.2081 9.42327 12.8986 9.73281L11.6367 10.9947C11.0516 10.8206 9.95994 10.4247 9.26802 9.73281C8.5761 9.04089 8.18027 7.94918 8.0061 7.36414L9.26802 6.10222C9.57756 5.79268 9.57756 5.29235 9.26802 4.98281L6.10135 1.81614C5.79181 1.5066 5.29148 1.5066 4.98194 1.81614L2.83494 3.96314C2.5341 4.26397 2.36469 4.67722 2.37102 5.09918C2.38923 6.22652 2.68769 10.1421 5.7736 13.228C8.85952 16.3139 12.7751 16.6116 13.9032 16.6306C13.9072 16.6306 13.9214 16.6306 13.9254 16.6306C14.3434 16.6306 14.7384 16.4659 15.0377 16.1667L17.1847 14.0197C17.4942 13.7101 17.4942 13.2098 17.1847 12.9003L14.018 9.73281ZM13.9175 15.0465C12.9295 15.0298 9.54906 14.7646 6.89302 12.1078C4.22827 9.44306 3.97019 6.05077 3.95435 5.08256L5.54165 3.49527L7.5889 5.54252L6.56527 6.56614C6.37606 6.75456 6.29531 7.02689 6.34994 7.28814C6.36894 7.37918 6.83365 9.53806 8.14781 10.8522C9.46198 12.1664 11.6209 12.6311 11.7119 12.6501C11.9755 12.7063 12.2455 12.6248 12.4339 12.4356L13.4583 11.4119L15.5056 13.4592L13.9175 15.0465Z" fill="#828A9D"/>
</svg>
