<svg width="24" height="24" viewBox="0 0 24 24" fill="none" xmlns="http://www.w3.org/2000/svg">
  <path
    d="M10 12C8.9 12 7.95833 11.6083 7.175 10.825C6.39167 10.0417 6 9.1 6 8C6 6.9 6.39167 5.95833 7.175 5.175C7.95833 4.39167 8.9 4 10 4C11.1 4 12.0417 4.39167 12.825 5.175C13.6083 5.95833 14 6.9 14 8C14 9.1 13.6083 10.0417 12.825 10.825C12.0417 11.6083 11.1 12 10 12ZM2 18V17.2C2 16.65 2.14167 16.1333 2.425 15.65C2.70833 15.1667 3.1 14.8 3.6 14.55C4.56667 14.0667 5.56667 13.6873 6.6 13.412C7.63333 13.1367 8.69167 12.9993 9.775 13C10.0583 13 10.296 13.1 10.488 13.3C10.68 13.5 10.7757 13.7417 10.775 14.025C10.7743 14.3083 10.6783 14.546 10.487 14.738C10.2957 14.93 10.0583 15.0257 9.775 15.025C8.84167 15.025 7.93733 15.1417 7.062 15.375C6.18667 15.6083 5.33267 15.9333 4.5 16.35C4.33333 16.4333 4.20833 16.55 4.125 16.7C4.04167 16.85 4 17.0167 4 17.2V18H9.775C10.0583 18 10.296 18.096 10.488 18.288C10.68 18.48 10.7757 18.7173 10.775 19C10.7743 19.2827 10.6783 19.5203 10.487 19.713C10.2957 19.9057 10.0583 20.0013 9.775 20H4C3.45 20 2.97933 19.8043 2.588 19.413C2.19667 19.0217 2.00067 18.5507 2 18ZM15.85 20.2L15.7 19.5C15.5 19.4167 15.3127 19.3293 15.138 19.238C14.9633 19.1467 14.784 19.034 14.6 18.9L13.875 19.125C13.6583 19.1917 13.446 19.1833 13.238 19.1C13.03 19.0167 12.8673 18.8833 12.75 18.7L12.55 18.35C12.4333 18.15 12.3917 17.9333 12.425 17.7C12.4583 17.4667 12.5667 17.275 12.75 17.125L13.3 16.65C13.2667 16.4167 13.25 16.2 13.25 16C13.25 15.8 13.2667 15.5833 13.3 15.35L12.75 14.875C12.5667 14.725 12.4583 14.5373 12.425 14.312C12.3917 14.0867 12.4333 13.8743 12.55 13.675L12.775 13.3C12.8917 13.1167 13.05 12.9833 13.25 12.9C13.45 12.8167 13.6583 12.8083 13.875 12.875L14.6 13.1C14.7833 12.9667 14.9627 12.854 15.138 12.762C15.3133 12.67 15.5007 12.5827 15.7 12.5L15.85 11.775C15.9 11.5417 16.0127 11.3543 16.188 11.213C16.3633 11.0717 16.5673 11.0007 16.8 11H17.2C17.4333 11 17.6377 11.075 17.813 11.225C17.9883 11.375 18.1007 11.5667 18.15 11.8L18.3 12.5C18.5 12.5833 18.6873 12.675 18.862 12.775C19.0367 12.875 19.216 13 19.4 13.15L20.075 12.925C20.3083 12.8417 20.5333 12.8417 20.75 12.925C20.9667 13.0083 21.1333 13.15 21.25 13.35L21.45 13.7C21.5667 13.9 21.6083 14.1167 21.575 14.35C21.5417 14.5833 21.4333 14.775 21.25 14.925L20.7 15.4C20.7333 15.6 20.75 15.8083 20.75 16.025C20.75 16.2417 20.7333 16.45 20.7 16.65L21.25 17.125C21.4333 17.275 21.5417 17.4627 21.575 17.688C21.6083 17.9133 21.5667 18.1257 21.45 18.325L21.225 18.7C21.1083 18.8833 20.95 19.0167 20.75 19.1C20.55 19.1833 20.3417 19.1917 20.125 19.125L19.4 18.9C19.2167 19.0333 19.0373 19.1457 18.862 19.237C18.6867 19.3283 18.4993 19.416 18.3 19.5L18.15 20.225C18.1 20.4583 17.9877 20.646 17.813 20.788C17.6383 20.93 17.434 21.0007 17.2 21H16.8C16.5667 21 16.3627 20.925 16.188 20.775C16.0133 20.625 15.9007 20.4333 15.85 20.2ZM17 18C17.55 18 18.021 17.8043 18.413 17.413C18.805 17.0217 19.0007 16.5507 19 16C18.9993 15.4493 18.8037 14.9787 18.413 14.588C18.0223 14.1973 17.5513 14.0013 17 14C16.4487 13.9987 15.978 14.1947 15.588 14.588C15.198 14.9813 15.002 15.452 15 16C14.998 16.548 15.194 17.019 15.588 17.413C15.982 17.807 16.4527 18.0027 17 18ZM10 10C10.55 10 11.021 9.80433 11.413 9.413C11.805 9.02167 12.0007 8.55067 12 8C11.9993 7.44933 11.8037 6.97867 11.413 6.588C11.0223 6.19733 10.5513 6.00133 10 6C9.44867 5.99867 8.978 6.19467 8.588 6.588C8.198 6.98133 8.002 7.452 8 8C7.998 8.548 8.194 9.019 8.588 9.413C8.982 9.807 9.45267 10.0027 10 10Z"
    fill="#C4CCF5" />
</svg>