<svg width="16" height="17" viewBox="0 0 16 17" fill="white" xmlns="http://www.w3.org/2000/svg">
<path d="M14.4707 4.02733L12.4713 2.02866C12.3467 1.90333 12.1773 1.83333 12 1.83333H4.00001C3.82268 1.83333 3.65334 1.90333 3.52868 2.02866L1.52934 4.02733C1.40801 4.14799 1.33334 4.31466 1.33334 4.49933V13.1667C1.33334 13.902 1.93134 14.5 2.66668 14.5H13.3333C14.0687 14.5 14.6667 13.902 14.6667 13.1667V4.49933C14.6667 4.31466 14.592 4.14799 14.4707 4.02733ZM4.27601 3.16666H11.724L12.39 3.83266H3.61001L4.27601 3.16666ZM2.66668 13.1667V5.166H13.3333L13.3347 13.1667H2.66668Z" fill="#BABAC1"/>
<path d="M9.99999 8.5H5.99999V7.16666H4.66666V9.83333H11.3333V7.16666H9.99999V8.5Z" fill="#BABAC1"/>
</svg>
