<svg width="20" height="20" viewBox="0 0 20 20" fill="white" xmlns="http://www.w3.org/2000/svg">
<path d="M9.99999 1.66666C5.40499 1.66666 1.66666 5.40499 1.66666 9.99999C1.66666 14.595 5.40499 18.3333 9.99999 18.3333C14.595 18.3333 18.3333 14.595 18.3333 9.99999C18.3333 5.40499 14.595 1.66666 9.99999 1.66666ZM9.99999 16.6667C6.32416 16.6667 3.33332 13.6758 3.33332 9.99999C3.33332 6.32416 6.32416 3.33332 9.99999 3.33332C13.6758 3.33332 16.6667 6.32416 16.6667 9.99999C16.6667 13.6758 13.6758 16.6667 9.99999 16.6667Z" fill="#7FFBA2"/>
<path d="M8.33249 11.3225L6.41666 9.40999L5.23999 10.59L8.33416 13.6775L13.9225 8.08916L12.7442 6.91083L8.33249 11.3225Z" fill="#7FFBA2"/>
</svg>
