<svg width="16" height="17" viewBox="0 0 16 17" fill="white" xmlns="http://www.w3.org/2000/svg">
<g filter="url(#filter0_d)">
<path d="M5.33535 13.8333C5.33535 14.5687 5.93335 15.1667 6.66868 15.1667H13.3353C14.0707 15.1667 14.6687 14.5687 14.6687 13.8333V5.83333H16.002V4.49999H14.002H13.3353V3.16666C13.3353 2.43133 12.7373 1.83333 12.002 1.83333H8.00201C7.26668 1.83333 6.66868 2.43133 6.66868 3.16666V4.49999H6.00201H4.00201V5.83333H5.33535V13.8333ZM8.00201 3.16666H12.002V4.49999H8.00201V3.16666ZM7.33535 5.83333H12.6687H13.3353L13.336 13.8333H6.66868V5.83333H7.33535Z" fill="#BABAC1"/>
<path d="M8.00201 7.16666H9.33535V12.5H8.00201V7.16666ZM10.6687 7.16666H12.002V12.5H10.6687V7.16666Z" fill="#BABAC1"/>
</g>
<defs>
<filter id="filter0_d" x="-2" y="0.5" width="24" height="24" filterUnits="userSpaceOnUse" color-interpolation-filters="sRGB">
<feFlood flood-opacity="0" result="BackgroundImageFix"/>
<feColorMatrix in="SourceAlpha" type="matrix" values="0 0 0 0 0 0 0 0 0 0 0 0 0 0 0 0 0 0 127 0"/>
<feOffset dy="4"/>
<feGaussianBlur stdDeviation="2"/>
<feColorMatrix type="matrix" values="0 0 0 0 0 0 0 0 0 0 0 0 0 0 0 0 0 0 0.25 0"/>
<feBlend mode="normal" in2="BackgroundImageFix" result="effect1_dropShadow"/>
<feBlend mode="normal" in="SourceGraphic" in2="effect1_dropShadow" result="shape"/>
</filter>
</defs>
</svg>
